<svg width="213" height="59" viewBox="0 0 213 59" fill="none" xmlns="http://www.w3.org/2000/svg">
<path d="M28.5 58C43.6878 58 56 45.6878 56 30.5C56 15.3122 43.6878 3 28.5 3C13.3122 3 1 15.3122 1 30.5C1 45.6878 13.3122 58 28.5 58Z" stroke="#ACAA81" stroke-width="2" stroke-miterlimit="22.9256"/>
<path d="M9.46295 30.7222V22.0185H11.5741L12.8333 27.9445L14.0741 22.0185H16.1852V30.7222H14.8889L14.8704 23.8704L13.5 30.7222H12.1481L10.7778 23.8704V30.7222H9.46295Z" fill="#A30059"/>
<path d="M17.3148 26.4259C17.3148 25.537 17.4074 24.7778 17.6296 24.1852C17.7777 23.7407 17.9999 23.3333 18.2777 22.9815C18.5555 22.6296 18.8518 22.3704 19.1851 22.2037C19.6111 21.963 20.1111 21.8519 20.6851 21.8519C21.7222 21.8519 22.537 22.2593 23.1481 23.0556C23.7777 23.8519 24.074 24.963 24.074 26.3704C24.074 27.7778 23.7777 28.8889 23.1666 29.6852C22.5555 30.4815 21.7222 30.8704 20.7037 30.8704C19.6666 30.8704 18.8333 30.4815 18.2222 29.6852C17.6111 28.8889 17.3148 27.8148 17.3148 26.4259ZM18.7592 26.3519C18.7592 27.3519 18.9444 28.0926 19.3148 28.6111C19.6666 29.1111 20.1481 29.3704 20.7037 29.3704C21.2592 29.3704 21.7222 29.1111 22.0925 28.6111C22.4444 28.1111 22.6296 27.3519 22.6296 26.3333C22.6296 25.3333 22.4444 24.5926 22.0925 24.0926C21.7407 23.6111 21.2777 23.3519 20.7037 23.3519C20.1111 23.3519 19.6481 23.6111 19.2962 24.1111C18.9444 24.6111 18.7592 25.3519 18.7592 26.3519Z" fill="#A30059"/>
<path d="M29.648 27.5L30.9999 28.037C30.7962 28.9815 30.4443 29.7037 29.9628 30.1667C29.4628 30.6296 28.8517 30.8704 28.111 30.8704C27.185 30.8704 26.4258 30.463 25.8147 29.6852C25.2221 28.8889 24.9258 27.8148 24.9258 26.4444C24.9258 24.9815 25.2221 23.8519 25.8332 23.0556C26.4258 22.2593 27.2221 21.8519 28.1851 21.8519C29.0369 21.8519 29.7406 22.1667 30.2777 22.7963C30.5925 23.1667 30.8332 23.7037 30.9814 24.4074L29.5925 24.8148C29.4999 24.3704 29.3332 24.0185 29.0739 23.7593C28.8147 23.4815 28.4999 23.3519 28.1295 23.3519C27.611 23.3519 27.185 23.5926 26.8517 24.0556C26.5369 24.5185 26.3702 25.2593 26.3702 26.3148C26.3702 27.4074 26.5369 28.1852 26.8517 28.6481C27.1665 29.1296 27.5925 29.3519 28.0925 29.3519C28.4628 29.3519 28.7962 29.2037 29.0554 28.9074C29.3332 28.6111 29.5184 28.1481 29.648 27.5Z" fill="#A30059"/>
<path d="M32.2407 22.0185H33.6481V25.7222C33.9629 25.6852 34.1666 25.5741 34.2777 25.4074C34.3888 25.2593 34.5555 24.7963 34.7962 24.0556C35.0925 23.1111 35.3888 22.537 35.6666 22.2963C35.9629 22.0741 36.4259 21.963 37.0925 21.963C37.1111 21.963 37.1851 21.963 37.2963 21.9445V23.2593L37.0925 23.2408C36.7962 23.2408 36.5925 23.2963 36.4629 23.3704C36.3148 23.463 36.2222 23.6111 36.1296 23.7778C36.0555 23.963 35.9259 24.3519 35.7592 24.9074C35.6851 25.2222 35.5925 25.463 35.4814 25.6667C35.3888 25.8704 35.2036 26.0556 34.9629 26.2407C35.2777 26.3519 35.537 26.5741 35.7407 26.9074C35.9444 27.2407 36.1666 27.7222 36.4074 28.3333L37.3518 30.7222H35.7036L34.8703 28.4815C34.8518 28.4445 34.8333 28.3889 34.7777 28.2963C34.7592 28.2593 34.7036 28.1296 34.611 27.8889C34.4259 27.4445 34.2777 27.1852 34.1666 27.0741C34.0555 26.963 33.8888 26.9074 33.6481 26.9074V30.7222H32.2407V22.0185Z" fill="#A30059"/>
<path d="M38.1666 22.0185H40.9444C41.4999 22.0185 41.9074 22.037 42.1851 22.0926C42.4629 22.1482 42.7036 22.2778 42.9073 22.463C43.1296 22.6296 43.3148 22.8704 43.4444 23.1852C43.5925 23.4815 43.6666 23.8148 43.6666 24.2037C43.6666 24.6111 43.574 24.9815 43.4073 25.3148C43.2222 25.6482 42.9814 25.9074 42.6851 26.0741C43.1111 26.2408 43.4259 26.5 43.6666 26.8704C43.8888 27.2408 43.9999 27.6852 43.9999 28.1852C43.9999 28.5926 43.9259 28.963 43.7777 29.3519C43.6296 29.7222 43.4259 30.0185 43.1851 30.2408C42.9259 30.463 42.6111 30.6111 42.2407 30.6667C41.9999 30.6852 41.4259 30.7037 40.537 30.7222H38.1666V22.0185ZM39.574 23.463V25.463H40.5C41.037 25.463 41.3888 25.463 41.5185 25.4259C41.7592 25.4074 41.9444 25.2963 42.0925 25.1296C42.2222 24.9445 42.2962 24.7222 42.2962 24.4445C42.2962 24.1852 42.2222 23.963 42.1111 23.7963C41.9999 23.6296 41.8148 23.5185 41.574 23.4815C41.4444 23.463 41.037 23.463 40.3888 23.463H39.574ZM39.574 26.9074V29.2408H40.8703C41.3888 29.2408 41.7037 29.2222 41.8518 29.1852C42.0555 29.1482 42.2222 29.0371 42.3518 28.8519C42.4814 28.6667 42.5555 28.4074 42.5555 28.1111C42.5555 27.8333 42.4999 27.6111 42.4074 27.4445C42.2962 27.2593 42.1481 27.1296 41.9629 27.037C41.7592 26.963 41.3518 26.9074 40.7037 26.9074H39.574Z" fill="#A30059"/>
<path d="M50.9999 30.7222H49.4628L48.8702 28.7408H46.074L45.4999 30.7222H43.9999L46.7036 22.0185H48.2036L50.9999 30.7222ZM48.4073 27.2593L47.4443 24.037L46.4999 27.2593H48.4073Z" fill="#A30059"/>
<path d="M12.8703 36.7037H13.7962V39.5926L15.2963 36.7037H16.2407V41.2963H15.3148V38.3704L13.7962 41.2963H12.8703V36.7037Z" fill="#A30059"/>
<path d="M18.9814 38.9445C18.9814 38.537 19.074 38.1482 19.2222 37.7778C19.3889 37.4074 19.6111 37.1111 19.9074 36.9074C20.1852 36.7222 20.5185 36.6111 20.8703 36.6111C21.4259 36.6111 21.8889 36.8333 22.2407 37.2963C22.5926 37.7407 22.7778 38.3148 22.7778 39C22.7778 39.7037 22.5926 40.2778 22.2407 40.7222C21.8704 41.1852 21.4259 41.4074 20.8889 41.4074C20.5555 41.4074 20.2222 41.3148 19.9259 41.1296C19.6111 40.9445 19.3889 40.6667 19.2222 40.2963C19.074 39.9259 18.9814 39.4815 18.9814 38.9445ZM19.9815 39.0185C19.9815 39.463 20.074 39.8148 20.2407 40.0556C20.4259 40.2963 20.6296 40.4259 20.8889 40.4259C21.1296 40.4259 21.3518 40.2963 21.5185 40.0556C21.6852 39.8148 21.7778 39.463 21.7778 39C21.7778 38.5556 21.6852 38.2037 21.5185 37.963C21.3518 37.7222 21.1296 37.6111 20.8889 37.6111C20.6296 37.6111 20.4259 37.7222 20.2407 37.963C20.074 38.2037 19.9815 38.5556 19.9815 39.0185Z" fill="#A30059"/>
<path d="M26.2962 34.8149H26.9629C26.9444 35.1852 26.8703 35.463 26.7221 35.6482C26.5925 35.8334 26.2777 35.926 25.7407 35.926C25.6851 35.926 25.6296 35.926 25.5555 35.926H25.4444C25.1296 35.926 24.8703 35.963 24.6851 36.0556C24.4814 36.1297 24.3333 36.2963 24.2036 36.5371C24.074 36.7963 24.0185 37.1852 24.0185 37.7223C24.1481 37.3889 24.3333 37.1482 24.574 36.9815C24.7962 36.8149 25.074 36.7223 25.3888 36.7223C25.8703 36.7223 26.2777 36.963 26.611 37.426C26.9444 37.9075 27.111 38.4445 27.111 39.0556C27.111 39.7037 26.9258 40.2593 26.574 40.7223C26.2221 41.1852 25.7777 41.4074 25.2036 41.4074C24.8148 41.4074 24.4629 41.2963 24.1666 41.0556C23.8703 40.8334 23.6666 40.5186 23.537 40.1112C23.4074 39.7037 23.3518 39.0371 23.3518 38.0926C23.3518 36.9815 23.5185 36.2038 23.8333 35.7223C24.1666 35.2408 24.7222 35.0001 25.537 35.0001H26.0184C26.1666 35.0001 26.2592 34.9445 26.2962 34.8149ZM24.3518 39.0371C24.3518 39.463 24.4259 39.7963 24.5925 40.0371C24.7592 40.2778 24.9629 40.4075 25.2036 40.4075C25.4629 40.4075 25.6851 40.2778 25.8518 40.0186C26.0184 39.7778 26.0925 39.4445 26.0925 39.0371C26.0925 38.6297 26.0184 38.3149 25.8518 38.0556C25.6666 37.8149 25.4629 37.6852 25.2222 37.6852C24.9814 37.6852 24.7777 37.8149 24.5925 38.0556C24.4259 38.2963 24.3518 38.6297 24.3518 39.0371Z" fill="#A30059"/>
<path d="M28 36.7037H31.2593V41.2963H30.2778V37.6852H28.963V39.7593C28.963 40.2778 28.9074 40.6482 28.8148 40.8704C28.7222 41.0741 28.6111 41.2037 28.5 41.2778C28.3704 41.3519 28.1852 41.3704 27.9259 41.3704C27.7778 41.3704 27.5741 41.3519 27.3148 41.2963V40.4074C27.3333 40.4074 27.3889 40.4074 27.4815 40.426C27.5741 40.426 27.6482 40.426 27.7037 40.426C27.8519 40.426 27.9259 40.3704 27.963 40.2778C27.9815 40.1667 28 39.8519 28 39.3704V36.7037Z" fill="#A30059"/>
<path d="M32.9629 38.1296L32.074 37.9259C32.1851 37.4815 32.3518 37.1482 32.5925 36.9444C32.8332 36.7222 33.2036 36.6111 33.6666 36.6111C34.111 36.6111 34.4258 36.6852 34.6481 36.7963C34.8518 36.9259 34.9999 37.0926 35.0925 37.2963C35.1666 37.4815 35.2221 37.8519 35.2221 38.3704L35.2036 39.7963C35.2036 40.2037 35.2221 40.5 35.2592 40.6852C35.2777 40.8704 35.3332 41.0741 35.4258 41.2963H34.4629C34.4444 41.2222 34.4073 41.1111 34.3703 40.9445C34.3518 40.8704 34.3332 40.8333 34.3332 40.7963C34.1666 41 33.9999 41.1667 33.7962 41.2593C33.611 41.3704 33.4073 41.4074 33.2036 41.4074C32.8147 41.4074 32.5184 41.2778 32.3147 41.037C32.0925 40.7778 31.9814 40.4445 31.9814 40.0556C31.9814 39.7963 32.0369 39.5741 32.1295 39.3704C32.2221 39.1667 32.3703 39 32.5555 38.9074C32.7221 38.7963 32.9814 38.7037 33.3147 38.6111C33.7777 38.5185 34.0925 38.4074 34.2592 38.3148V38.2037C34.2592 37.963 34.2221 37.7963 34.1295 37.6852C34.0369 37.5926 33.8518 37.537 33.5925 37.537C33.4258 37.537 33.2962 37.5926 33.2036 37.6667C33.0925 37.7593 33.0184 37.9074 32.9629 38.1296ZM34.2592 39.1111C34.1481 39.1667 33.9444 39.2222 33.6666 39.2963C33.4073 39.3704 33.2221 39.4445 33.1481 39.5C33.0184 39.6111 32.9444 39.7593 32.9444 39.9259C32.9444 40.0926 32.9999 40.2407 33.111 40.3704C33.2036 40.5 33.3332 40.5556 33.4999 40.5556C33.6666 40.5556 33.8332 40.4815 33.9999 40.3333C34.111 40.2222 34.1851 40.0926 34.2221 39.9445C34.2407 39.8333 34.2592 39.6296 34.2592 39.3519V39.1111Z" fill="#A30059"/>
<path d="M39.3703 38.0741L38.4259 38.2778C38.3889 38.0556 38.3148 37.8704 38.2037 37.7407C38.0926 37.6296 37.9444 37.5741 37.7592 37.5741C37.5185 37.5741 37.3148 37.6667 37.1852 37.8889C37.037 38.0926 36.9629 38.4445 36.9629 38.9259C36.9629 39.4815 37.037 39.8519 37.1852 40.0926C37.3333 40.3148 37.5185 40.4259 37.7778 40.4259C37.9629 40.4259 38.1111 40.3519 38.2222 40.2222C38.3333 40.0926 38.4259 39.8704 38.4629 39.5556L39.4259 39.7593C39.3333 40.2963 39.1296 40.7222 38.8518 41C38.5741 41.2778 38.2037 41.4074 37.7222 41.4074C37.1852 41.4074 36.7592 41.2037 36.4444 40.7778C36.1296 40.3519 35.963 39.7593 35.963 39.0185C35.963 38.2593 36.1296 37.6667 36.4444 37.2407C36.7592 36.8148 37.2037 36.6111 37.7407 36.6111C38.1852 36.6111 38.537 36.7407 38.8148 36.9815C39.0741 37.2222 39.2592 37.5741 39.3703 38.0741Z" fill="#A30059"/>
<path d="M39.6851 36.7037H42.9999V37.6852H41.8148V41.2963H40.8518V37.6852H39.6851V36.7037Z" fill="#A30059"/>
<path d="M43.611 36.7037H44.574V38.6111H45.5555C45.9258 38.6111 46.2221 38.6482 46.4258 38.7223C46.6296 38.7963 46.7962 38.9445 46.9444 39.1667C47.074 39.4074 47.1481 39.6667 47.1481 39.963C47.1481 40.4074 47.0184 40.7408 46.7777 40.963C46.537 41.1852 46.1666 41.2963 45.6851 41.2963H43.611V36.7037ZM44.574 40.5185H45.4814C45.7592 40.5185 45.9444 40.463 46.0184 40.3519C46.111 40.2408 46.1481 40.0926 46.1481 39.9445C46.1481 39.7223 46.074 39.5741 45.9444 39.4815C45.7962 39.4074 45.5555 39.3704 45.2036 39.3704H44.574V40.5185Z" fill="#A30059"/>
<path d="M106.496 56.9371C121.681 56.9371 133.991 44.625 133.991 29.4371C133.991 14.2493 121.681 1.93713 106.496 1.93713C91.3102 1.93713 79 14.2493 79 29.4371C79 44.625 91.3102 56.9371 106.496 56.9371Z" stroke="#A30059" stroke-width="2" stroke-miterlimit="22.9256"/>
<path fill-rule="evenodd" clip-rule="evenodd" d="M109.871 18.2395C112.653 18.2395 113.905 17.8114 115.189 19.491C115.419 19.7874 115.502 19.8533 115.765 20.1662L117.691 22.9326H109.871V18.2395ZM125.364 27.1647V31.3308C125.232 32.747 124.672 33.1093 122.697 33.1093C122.713 32.4012 122.861 32.4835 122.861 31.6931C122.861 29.7829 121.314 28.0703 119.074 28.0374C116.522 28.0045 114.827 30.2111 115.502 33.1093H102.034C102.083 32.6153 102.198 32.5494 102.198 32.006C102.198 28.1198 98.1316 27.0165 95.8924 28.9925C94.2131 30.4745 94.7399 32.006 94.8387 33.1093C92.2373 33.1093 92.2208 33.4221 91.7104 31.232C92.3855 30.9027 92.5172 31.265 93.1758 30.6557C94.0978 29.8159 94.1143 27.8233 91.7104 27.6257V26.226C92.7148 26.226 94.9869 26.5224 94.9869 24.6617C94.9869 22.768 93.3404 22.7844 91.7104 22.7844C91.7104 21.994 91.8422 22.0763 91.8586 21.3683C94.1801 21.3683 96.8803 21.8787 96.8803 19.8039C96.8803 17.5808 94.9046 18.0748 92.3361 18.0748C92.3526 17.0704 92.9124 16.3623 93.9002 16.3623H113.312C114.925 16.3623 115.6 17.6961 116.522 18.9311C117.379 20.0509 118.136 21.0719 118.943 22.1587C119.684 23.1632 119.371 22.9326 120.639 23.4266C122.713 24.2335 125.364 24.8922 125.364 27.1647Z" fill="#ACAA81"/>
<path fill-rule="evenodd" clip-rule="evenodd" d="M116.276 31.6931C116.276 35.5958 122.022 35.2994 121.84 31.7425C121.643 27.8398 116.276 28.482 116.276 31.6931Z" fill="#ACAA81"/>
<path fill-rule="evenodd" clip-rule="evenodd" d="M95.6128 31.6931C95.6128 32.9776 96.7488 34.5255 97.9672 34.5255C99.0374 34.5255 99.6301 34.5255 100.437 33.7021C103.022 31.1168 98.988 27.3129 96.436 29.8488C96.0903 30.1946 95.6128 31.1168 95.6128 31.6931Z" fill="#ACAA81"/>
<path fill-rule="evenodd" clip-rule="evenodd" d="M85.4376 19.0135C85.3224 19.5404 85.1083 20.5779 86.0797 20.5779H94.987C96.5182 20.5779 96.1889 18.8653 95.2998 18.8653C93.8345 18.8653 86.2938 18.6841 85.4376 19.0135Z" fill="#ACAA81"/>
<path fill-rule="evenodd" clip-rule="evenodd" d="M87.4791 24.497C87.4791 25.1392 87.9072 25.4356 88.5822 25.4356C90.1299 25.4356 92.4679 25.6168 93.9003 25.2874C94.1637 24.7275 94.3448 23.7231 93.4228 23.7231H88.2694C87.8907 23.7231 87.4791 24.1347 87.4791 24.497Z" fill="#ACAA81"/>
<path fill-rule="evenodd" clip-rule="evenodd" d="M89.208 29.1901C89.208 30.5569 90.2782 30.2934 92.0235 30.2934C92.9784 30.2934 93.2418 28.5644 92.1716 28.5644C90.624 28.5644 89.208 28.2845 89.208 29.1901Z" fill="#ACAA81"/>
<path d="M95.7938 42.4791V43.5H92.2704C92.3033 43.1048 92.4186 42.7425 92.6161 42.3967C92.7973 42.0344 93.1759 41.5734 93.7357 40.997C94.1968 40.5195 94.4767 40.2066 94.5754 40.0419C94.7072 39.8114 94.7895 39.5809 94.7895 39.3668C94.7895 39.1033 94.7236 38.9222 94.6084 38.7904C94.4767 38.6587 94.312 38.5928 94.098 38.5928C93.9004 38.5928 93.7357 38.6587 93.604 38.7904C93.4723 38.9386 93.4064 39.1692 93.39 39.4985L92.3856 39.3832C92.4515 38.774 92.6326 38.3294 92.9454 38.0659C93.2583 37.7859 93.6534 37.6542 94.1309 37.6542C94.6413 37.6542 95.0529 37.8189 95.3493 38.1317C95.6456 38.4282 95.7938 38.8234 95.7938 39.2844C95.7938 39.5479 95.7444 39.7949 95.6621 40.0255C95.5798 40.2725 95.4481 40.5195 95.267 40.7829C95.1352 40.9476 94.9212 41.1946 94.6084 41.524C94.2791 41.8368 94.0815 42.0509 93.9992 42.1662C93.9169 42.265 93.851 42.3803 93.7851 42.4791H95.7938Z" fill="#A30059"/>
<path d="M98.4445 43.5V42.3308H96.3041V41.3593L98.5597 37.6707H99.4159V41.3593H100.058V42.3308H99.4159V43.5H98.4445ZM98.4445 41.3593V39.3832L97.2426 41.3593H98.4445Z" fill="#A30059"/>
<path d="M102.709 37.6871H103.779V39.0868C103.779 39.5314 103.795 39.8279 103.828 39.9761C103.845 40.1243 103.944 40.2395 104.092 40.3548C104.24 40.4701 104.454 40.5195 104.734 40.5195C104.964 40.5195 105.162 40.4865 105.343 40.4371C105.524 40.3877 105.672 40.3054 105.804 40.1901V37.6871H106.858V43.5H105.804V41.1617C105.59 41.2605 105.376 41.3428 105.162 41.4087C104.964 41.4581 104.75 41.4746 104.553 41.4746C104.026 41.4746 103.598 41.3428 103.236 41.0793C102.89 40.7994 102.709 40.3219 102.709 39.6467V37.6871Z" fill="#A30059"/>
<path d="M112.67 43.5H111.534L111.073 42.1826H108.982L108.537 43.5H107.418L109.459 37.6871H110.579L112.67 43.5ZM110.727 41.1946L110.003 39.0539L109.295 41.1946H110.727Z" fill="#A30059"/>
<path d="M116.407 41.3593L117.444 41.7051C117.28 42.3473 117.016 42.8249 116.654 43.1377C116.292 43.4506 115.831 43.5988 115.255 43.5988C114.563 43.5988 113.987 43.3353 113.542 42.8084C113.098 42.2814 112.867 41.5569 112.867 40.6512C112.867 39.6797 113.098 38.9222 113.542 38.3952C113.987 37.8518 114.596 37.5883 115.321 37.5883C115.963 37.5883 116.49 37.8024 116.885 38.2141C117.132 38.4611 117.313 38.8234 117.428 39.2844L116.374 39.5644C116.308 39.268 116.193 39.021 115.996 38.8563C115.798 38.6752 115.551 38.5928 115.271 38.5928C114.876 38.5928 114.563 38.741 114.316 39.0539C114.086 39.3668 113.954 39.8608 113.954 40.5524C113.954 41.2934 114.086 41.8204 114.316 42.1332C114.563 42.4461 114.86 42.5943 115.255 42.5943C115.535 42.5943 115.782 42.4955 115.979 42.2979C116.177 42.1003 116.325 41.7874 116.407 41.3593Z" fill="#A30059"/>
<path d="M122.894 43.5H121.742L121.297 42.1826H119.19L118.762 43.5H117.626L119.667 37.6871H120.787L122.894 43.5ZM120.951 41.1946L120.227 39.0539L119.519 41.1946H120.951Z" fill="#A30059"/>
<path d="M184.497 56.9371C199.683 56.9371 211.994 44.625 211.994 29.4371C211.994 14.2493 199.683 1.93713 184.497 1.93713C169.311 1.93713 157 14.2493 157 29.4371C157 44.625 169.311 56.9371 184.497 56.9371Z" stroke="#A30059" stroke-width="2" stroke-miterlimit="22.9256"/>
<path d="M169.62 29.1703V20.4688H174.422V21.9465H171.036V23.9987H173.95V25.4763H171.036V29.1703H169.62Z" fill="#ACAA81"/>
<path d="M175.571 29.1703V20.4688H178.546C179.285 20.4688 179.839 20.5509 180.167 20.6946C180.516 20.8588 180.783 21.1256 180.988 21.536C181.173 21.9259 181.275 22.3979 181.275 22.911C181.275 23.5677 181.132 24.1013 180.824 24.5323C180.516 24.9633 180.065 25.23 179.449 25.3327C179.757 25.5584 180.003 25.8047 180.208 26.0715C180.393 26.3177 180.66 26.8103 180.988 27.4875L181.85 29.1703H180.167L179.162 27.2823C178.792 26.605 178.546 26.1741 178.402 25.9894C178.279 25.8252 178.136 25.7021 177.992 25.6405C177.828 25.5789 177.602 25.5379 177.274 25.5379H176.987V29.1703H175.571ZM176.987 24.1424H178.033C178.71 24.1424 179.121 24.1218 179.285 24.0397C179.469 23.9782 179.593 23.855 179.695 23.6703C179.777 23.5062 179.839 23.2804 179.839 23.0136C179.839 22.7263 179.777 22.5006 179.634 22.3159C179.51 22.1312 179.346 22.008 179.121 21.967C178.997 21.9465 178.649 21.9465 178.095 21.9465H176.987V24.1424Z" fill="#ACAA81"/>
<path d="M182.609 29.1703V20.4688H187.78V21.9465H184.025V23.8756H187.513V25.3532H184.025V27.7133H187.903V29.1703H182.609Z" fill="#ACAA81"/>
<path d="M188.744 26.3588L190.119 26.1741C190.201 26.7487 190.365 27.1797 190.612 27.4465C190.858 27.7132 191.207 27.8569 191.638 27.8569C192.089 27.8569 192.417 27.7338 192.643 27.4875C192.889 27.2617 192.992 26.9744 192.992 26.6461C192.992 26.4409 192.951 26.2767 192.848 26.133C192.766 25.9894 192.582 25.8457 192.356 25.7431C192.192 25.6815 191.802 25.5584 191.227 25.3737C190.468 25.1274 189.955 24.8401 189.647 24.5117C189.216 24.0192 189.011 23.4446 189.011 22.7468C189.011 22.2953 189.093 21.8849 189.298 21.495C189.504 21.105 189.791 20.8177 190.181 20.6125C190.55 20.4073 191.002 20.3047 191.535 20.3047C192.418 20.3047 193.074 20.5509 193.505 21.0435C193.957 21.5155 194.182 22.1722 194.203 22.9726L192.787 23.0341C192.725 22.5826 192.602 22.2543 192.397 22.0696C192.212 21.8644 191.925 21.7617 191.515 21.7617C191.125 21.7617 190.796 21.8644 190.571 22.0901C190.427 22.2132 190.345 22.3979 190.345 22.6237C190.345 22.8289 190.407 23.0136 190.55 23.1573C190.735 23.342 191.166 23.5472 191.843 23.7524C192.541 23.9371 193.033 24.1629 193.361 24.3681C193.69 24.5938 193.957 24.8812 194.141 25.2506C194.326 25.62 194.408 26.092 194.408 26.6461C194.408 27.1386 194.305 27.6106 194.08 28.0416C193.854 28.4726 193.546 28.8009 193.136 29.0062C192.725 29.2319 192.212 29.3345 191.617 29.3345C190.735 29.3345 190.058 29.0882 189.586 28.5752C189.114 28.0621 188.826 27.3233 188.744 26.3588Z" fill="#ACAA81"/>
<path d="M195.598 29.1703V20.4688H197.014V23.8961H199.764V20.4688H201.179V29.1703H199.764V25.3737H197.014V29.1703H195.598Z" fill="#ACAA81"/>
<path d="M176.781 42.7767H175.447V36.4558C174.975 37.0304 174.401 37.4614 173.724 37.7282V36.2096C174.073 36.0659 174.462 35.7991 174.873 35.4092C175.283 34.9987 175.55 34.5472 175.714 34.0137H176.781V42.7767Z" fill="#A30059"/>
<path d="M181.049 34.0137C181.726 34.0137 182.26 34.301 182.65 34.9166C183.101 35.6349 183.327 36.8047 183.327 38.467C183.327 40.1293 183.101 41.2991 182.629 42.0379C182.26 42.6331 181.726 42.9204 181.049 42.9204C180.372 42.9204 179.839 42.592 179.408 41.9558C178.997 41.2991 178.792 40.1293 178.792 38.4465C178.792 36.8047 179.018 35.6144 179.469 34.8961C179.859 34.301 180.372 34.0137 181.049 34.0137ZM181.049 35.3887C180.906 35.3887 180.762 35.4502 180.639 35.5939C180.495 35.717 180.413 35.9428 180.331 36.2916C180.249 36.7226 180.208 37.4409 180.208 38.467C180.208 39.4931 180.249 40.1909 180.331 40.5808C180.413 40.9707 180.516 41.217 180.639 41.3401C180.762 41.4838 180.906 41.5454 181.049 41.5454C181.213 41.5454 181.357 41.4838 181.48 41.3401C181.603 41.217 181.706 40.9913 181.768 40.6424C181.87 40.2319 181.911 39.4931 181.911 38.467C181.911 37.4409 181.87 36.7431 181.788 36.3532C181.706 35.9838 181.603 35.717 181.48 35.5939C181.357 35.4502 181.213 35.3887 181.049 35.3887Z" fill="#A30059"/>
<path d="M186.467 34.0137C187.144 34.0137 187.677 34.301 188.067 34.9166C188.519 35.6349 188.744 36.8047 188.744 38.467C188.744 40.1293 188.519 41.2991 188.047 42.0379C187.677 42.6331 187.144 42.9204 186.467 42.9204C185.79 42.9204 185.256 42.592 184.825 41.9558C184.415 41.2991 184.209 40.1293 184.209 38.4465C184.209 36.8047 184.435 35.6144 184.887 34.8961C185.277 34.301 185.79 34.0137 186.467 34.0137ZM186.467 35.3887C186.323 35.3887 186.179 35.4502 186.056 35.5939C185.933 35.717 185.831 35.9428 185.748 36.2916C185.666 36.7226 185.625 37.4409 185.625 38.467C185.625 39.4931 185.666 40.1909 185.748 40.5808C185.831 40.9707 185.933 41.217 186.056 41.3401C186.179 41.4838 186.323 41.5454 186.467 41.5454C186.631 41.5454 186.774 41.4838 186.898 41.3401C187.021 41.217 187.123 40.9913 187.185 40.6424C187.287 40.2319 187.329 39.4931 187.329 38.467C187.329 37.4409 187.287 36.7431 187.205 36.3532C187.123 35.9838 187.021 35.717 186.898 35.5939C186.774 35.4502 186.631 35.3887 186.467 35.3887Z" fill="#A30059"/>
<path d="M189.647 36.189C189.647 35.4092 189.77 34.8345 190.058 34.4651C190.324 34.0957 190.694 33.8905 191.166 33.8905C191.658 33.8905 192.028 34.0752 192.315 34.4651C192.582 34.8345 192.725 35.4092 192.725 36.189C192.725 36.9689 192.582 37.5435 192.315 37.9129C192.028 38.3028 191.658 38.4875 191.186 38.4875C190.694 38.4875 190.324 38.3028 190.058 37.9334C189.77 37.5435 189.647 36.9689 189.647 36.189ZM190.673 36.189C190.673 36.7636 190.735 37.133 190.837 37.3177C190.919 37.4614 191.022 37.5435 191.166 37.5435C191.309 37.5435 191.432 37.4614 191.494 37.3177C191.597 37.133 191.658 36.7636 191.658 36.189C191.658 35.6349 191.597 35.245 191.494 35.0603C191.432 34.9166 191.309 34.8551 191.166 34.8551C191.022 34.8551 190.919 34.9166 190.837 35.0603C190.735 35.245 190.673 35.6349 190.673 36.189ZM192.192 43.1051H191.207L194.9 33.8905H195.885L192.192 43.1051ZM194.346 40.8065C194.346 40.0267 194.49 39.4521 194.757 39.0827C195.023 38.6927 195.413 38.508 195.885 38.508C196.357 38.508 196.747 38.6927 197.014 39.0827C197.281 39.4521 197.424 40.0267 197.424 40.8065C197.424 41.6069 197.281 42.1816 197.014 42.551C196.747 42.9409 196.357 43.1256 195.885 43.1256C195.413 43.1256 195.023 42.9409 194.757 42.551C194.49 42.1816 194.346 41.6069 194.346 40.8065ZM195.393 40.8065C195.393 41.3812 195.434 41.7711 195.536 41.9558C195.619 42.0995 195.742 42.161 195.865 42.161C196.008 42.161 196.132 42.0995 196.193 41.9558C196.316 41.7711 196.357 41.3812 196.357 40.8065C196.357 40.2524 196.316 39.8625 196.214 39.6778C196.132 39.5342 196.008 39.4521 195.865 39.4521C195.721 39.4521 195.619 39.5342 195.536 39.6778C195.434 39.8625 195.393 40.2524 195.393 40.8065Z" fill="#A30059"/>
</svg>
