<svg width="278" height="84" viewBox="0 0 278 84" fill="none" xmlns="http://www.w3.org/2000/svg">
<path fill-rule="evenodd" clip-rule="evenodd" d="M83.257 60.3181C83.1059 60.3181 82.8424 59.7086 82.7765 59.5375C82.7377 59.4411 82.7106 59.3972 82.6796 59.3183L82.5246 58.8359C82.4975 58.7525 82.482 58.6166 82.4626 58.5333C82.2999 57.7527 82.3851 58.1518 82.2882 57.4062C82.1255 56.1389 82.2418 55.2048 82.3502 53.9593L82.6796 51.9771C82.8734 51.1702 82.9586 50.7229 83.2027 49.9247C83.2299 49.8414 83.2376 49.7713 83.257 49.6967L83.5321 48.8503C83.6367 48.4951 83.505 48.6398 83.7685 48.4995L84.2528 51.0518C84.3807 51.6789 84.4737 53.626 84.466 54.4505C84.4621 54.6741 84.4311 54.6961 84.4272 54.9022L84.2683 56.6212C84.0901 57.4983 84.0901 57.9106 83.7607 58.9411C83.722 59.0639 83.7104 59.1692 83.6755 59.3007C83.629 59.4674 83.5941 59.4981 83.5515 59.6559C83.5127 59.805 83.4042 60.3181 83.2609 60.3181H83.257ZM85.055 60.783H81.1451C81.149 60.6909 81.1568 60.6032 81.1645 60.5155C81.2343 59.9366 81.0483 57.187 80.9398 56.4107C80.9088 56.1783 80.8661 56.0731 80.839 55.8231C80.7421 55.0206 80.5949 54.604 80.4942 54.0207C80.3818 53.3629 80.126 52.7314 79.9168 52.1131C79.7967 51.7578 79.6417 51.4509 79.4867 51.1132C79.4363 50.9992 79.4402 50.9816 79.3704 50.872C79.2774 50.7229 79.2077 50.5957 79.1224 50.451L78.8318 50.0344C78.6846 49.8458 78.2273 49.4511 78.2118 49.2494C77.8941 49.2801 77.7507 49.5564 77.3051 49.4467C77.1191 49.4029 77.2082 49.3546 77.0803 49.2494C76.5921 49.5169 76.1193 49.8458 75.5652 49.473L75.1816 49.1617C75.1777 49.1573 75.17 49.1485 75.1622 49.1398L74.5616 48.3723C74.4105 48.1574 74.2749 47.9645 74.1237 47.7496C74.0462 47.6399 73.9688 47.5786 73.8951 47.4733C73.7711 47.2979 73.7673 47.333 73.6355 47.1883C73.093 46.5962 72.4653 46.6401 72.3297 46.434C72.4188 46.298 72.5854 46.3243 72.7288 46.2673C72.814 46.2322 72.7636 46.2585 72.8024 46.2279C72.5699 46.1665 72.3258 46.1445 72.0352 46.1445C72.0739 45.9823 72.1553 46.0042 72.3297 45.9823C72.9225 45.9033 72.9496 45.8551 73.6239 45.9647C74.488 46.1007 75.3599 46.0393 76.1891 46.2015C76.8866 46.3375 77.6422 46.855 77.6577 47.7627C78.1731 47.7627 78.3862 48.2802 78.4249 48.7977C78.5489 48.7275 78.6419 48.767 78.7388 48.8547C78.8279 48.9336 78.8822 48.995 78.9752 49.0827C79.4828 49.5432 80.0834 50.4685 80.3237 51.1483C80.3779 51.2974 80.3702 51.4026 80.4748 51.5254C80.6995 51.7842 80.6104 50.9509 80.6104 50.8237C80.6104 50.5036 80.6298 50.1002 80.6104 49.7932C80.5717 49.2538 80.4476 48.5609 80.3663 48.0434C80.3392 47.8768 80.3353 47.7803 80.2965 47.6268L79.6029 45.3113C79.5758 45.2367 79.5719 45.2017 79.5448 45.1315L78.6071 43.0967C78.5606 42.9695 78.5683 43.0484 78.5683 42.8511L78.7504 42.7678C78.3901 42.7765 78.2157 42.8774 77.8359 42.6055C77.2586 42.1845 77.7429 42.1143 77.2508 41.9477C76.8905 41.8249 76.7238 41.8249 76.4797 41.5399C76.2627 41.2899 76.0883 41.0575 76.0845 40.6628C76.0806 39.7945 76.0883 38.9262 76.0883 38.0578C76.0883 37.707 76.0186 37.5667 75.9643 37.2509C75.9217 36.9966 75.8016 36.7949 75.666 36.5975C75.5614 36.4484 75.5149 36.3607 75.3947 36.2423C75.6582 36.2423 75.6854 36.3651 75.9411 36.3651C75.9256 36.1721 75.7822 35.9967 75.6117 35.9529V35.8695C75.8442 35.8125 76.0883 36.1327 76.2627 36.2861C76.5843 36.5756 76.8401 36.9659 77.1152 37.3079L77.6422 37.8693C77.8359 38.0842 78.0646 38.2771 78.2428 38.5095L78.3087 38.6016C78.7659 39.2156 79.1147 39.6366 79.1147 40.5005C79.1147 40.8908 78.9984 41.0092 78.8938 41.325C78.8706 41.3908 78.8899 41.3688 78.8551 41.4478C79.0914 41.4478 79.165 41.5355 79.103 42.0179C79.0759 42.2152 78.9868 42.4871 78.8938 42.645C79.0682 42.645 79.0294 42.6143 79.1224 42.7195C79.3433 42.9695 79.7579 43.9606 79.9052 44.3509L80.1842 45.1096C80.467 45.9077 80.684 46.7278 80.9049 47.561L81.366 49.9335C81.4319 50.3852 81.3699 50.736 81.6295 51.0781L81.6644 50.3326C81.6644 49.5388 81.7458 48.8021 81.8078 48.0566C81.8271 47.8198 81.8504 47.5479 81.8736 47.3461L82.172 45.2455C82.2069 44.9912 82.2534 44.8508 82.296 44.6009C82.3115 44.5175 82.3348 44.3334 82.3502 44.25C82.3812 44.1141 82.4161 44.0483 82.4277 43.9255C82.4587 43.6405 82.3696 43.5089 82.3115 43.2765C82.2805 43.1493 82.2495 43.0879 82.2108 42.9783C82.172 42.8686 82.1642 42.7853 82.1216 42.6669L81.7341 41.4916C81.707 41.382 81.6915 41.3162 81.6566 41.2066C81.4358 40.5575 81.4513 40.2944 81.3273 39.9655C81.1955 39.619 81.0134 38.7902 80.9281 38.3911C80.8971 38.2508 80.87 38.2333 80.8351 38.0798C80.6569 37.2378 80.777 37.5316 80.1532 36.8256C80.0253 36.6808 79.9168 36.5756 79.7967 36.444L79.6068 36.2467C79.5332 36.1721 79.4983 36.1195 79.4208 36.045L78.8589 35.4836C78.7737 35.3915 78.7427 35.3828 78.6574 35.2994L78.2816 34.9398C78.2234 34.8828 78.2312 34.8784 78.1886 34.839C78.1847 34.8346 78.1769 34.8258 78.1692 34.817L78.0839 34.7469C77.9871 34.6723 77.9754 34.646 77.8902 34.5539L76.8711 33.6812C76.7083 33.5453 76.3596 33.2997 76.255 33.1374C76.3673 32.9445 76.5533 32.8831 76.6928 32.7252C76.9525 32.4314 77.0183 32.677 77.5724 33.2164L77.6112 33.2558C77.6189 33.2602 77.6267 33.269 77.6306 33.2734L78.3436 33.997C78.7621 34.4355 79.2193 34.8214 79.6223 35.2775C79.7308 35.4003 79.7657 35.4441 79.8897 35.5538C80.033 35.681 80.126 35.8388 80.2772 35.9485C80.3198 35.9792 80.2927 35.9704 80.343 35.9879C80.5058 36.0537 80.498 35.852 80.4942 35.6634C80.4903 35.4529 80.4632 35.431 80.4554 35.2512C80.4167 34.4267 80.4632 33.5321 80.5329 32.7384L81.4861 28.1995C81.5249 28.0854 81.5636 27.9539 81.5753 27.8443C81.6218 27.4715 81.7729 26.84 81.9201 26.4979C81.986 26.3401 82.1952 26.169 82.3464 26.112C82.513 26.0506 82.6486 26.3094 82.7804 26.419C82.9354 26.5462 83.0787 26.6646 83.2299 26.7786L82.6912 27.7829C82.6254 27.8706 82.575 28.0065 82.513 28.1205L81.8039 30.0457C81.7574 30.2299 81.7225 30.2211 81.6838 30.4448L81.5094 31.3657C81.49 31.5368 81.4629 31.6464 81.428 31.813C81.273 32.5717 81.3389 34.7995 81.4086 35.4091L81.6993 37.2685C81.7729 37.7509 82.1371 38.0272 82.4161 38.3561L83.2027 39.3647C83.2841 39.4875 83.35 39.5796 83.443 39.6717C83.7142 39.5094 83.7104 39.2594 83.8963 38.7376C83.9893 38.4745 84.063 38.3166 84.1095 38.0272C84.1443 37.8254 84.2257 37.6763 84.3148 37.5184C84.7721 36.7203 84.5086 37.0624 84.8922 36.2291L85.7021 34.7074C86.0779 34.0934 86.4461 33.4663 86.8839 32.905L87.6822 31.9095C87.9844 31.5675 88.1937 31.4841 88.4184 31.2122C88.5114 31.1026 88.523 31.0544 88.6238 30.9491C88.74 30.8219 88.9221 30.6071 89.0965 30.6334C89.236 30.6553 89.2089 30.6465 89.2864 30.7869C89.3871 30.971 89.4879 31.1201 89.6506 31.2429C89.6313 31.5061 89.6041 31.4754 89.4491 31.5938C89.329 31.6859 89.298 31.7516 89.1508 31.8306C88.8214 32.0104 88.585 32.3831 88.2518 32.7559L87.5775 33.5628C87.1978 34.1022 86.7716 34.6285 86.4422 35.2117C86.2407 35.5713 86.0082 35.9178 85.8299 36.2993C85.6517 36.6808 85.4851 37.0448 85.2603 37.3869C85.179 37.5097 85.1363 37.6851 85.0937 37.821C84.8922 38.4832 84.869 38.321 84.6675 38.7858L84.1327 40.2462C84.0358 40.5751 84.2528 40.8031 84.4156 41.0575C84.497 41.1846 84.5473 41.2811 84.6171 41.4083C84.6791 41.5311 84.7488 41.6232 84.8186 41.7591C84.8922 41.8951 84.9581 42.0003 85.0162 42.1143C85.0976 42.2722 85.1015 42.3906 85.272 42.4432C85.3882 42.3468 85.489 42.1187 85.5781 41.9652L86.6398 40.3558C86.6437 40.3514 86.6514 40.3426 86.6592 40.3339L87.6008 39.0446C87.717 38.8867 87.8139 38.663 88.0154 38.663C88.0503 39.0226 88.1549 39.2638 88.3603 39.4919L88.4572 39.5884C88.5308 39.6629 88.5037 39.619 88.5618 39.7155C88.4727 39.869 88.4378 39.8602 88.3177 39.9743L88.1278 40.1716C87.9108 40.3997 87.779 40.6277 87.5775 40.8733L86.0896 43.0309C86.0159 43.1668 85.9656 43.2589 85.8919 43.3861C85.6711 43.7896 85.8338 43.8159 85.9539 44.1886C86.0469 44.4693 86.1709 44.728 86.2446 45.0175C86.2911 45.2061 86.3182 45.2762 86.3647 45.4209C86.4112 45.57 86.4306 45.7235 86.4809 45.8682C86.6243 46.2936 86.6824 46.7629 86.7561 47.2102C86.9537 48.4074 87.0389 49.5871 86.9576 50.8325C86.9343 51.2009 86.8956 51.5166 86.8801 51.8631C86.8529 52.6262 86.4383 54.8276 86.1981 55.5951C86.0276 56.1345 85.8764 56.7353 85.6904 57.2527C85.5703 57.586 85.3611 58.1474 85.3146 58.4807C85.2875 58.6868 85.2603 58.7613 85.2332 58.9674C85.1906 59.3051 85.1751 59.6559 85.117 59.9936C85.0782 60.2129 85.0472 60.4979 85.0278 60.8005L85.055 60.783ZM82.9276 46.89C82.9276 46.469 82.9741 46.1752 83.0012 45.8156C83.1872 45.9691 83.3267 46.5524 83.3229 46.7234L83.0012 47.6312C82.916 47.219 82.9276 47.6136 82.9276 46.8857V46.89ZM76.4255 47.0567C76.2162 46.912 75.6892 46.6225 75.4412 46.6006V46.5173C75.852 46.3375 76.6231 46.8067 76.9215 47.1137C76.999 47.1926 77.1966 47.4382 77.1695 47.6049C77.1385 47.8066 77.0261 47.561 76.8285 47.3856L76.4255 47.0567ZM84.497 46.3945C84.497 46.2059 84.714 45.7849 84.8031 45.5832L84.962 45.2236C85.0317 45.0745 85.0821 45.0482 85.1208 44.864H85.303C85.5897 45.4779 85.9694 46.9865 86.0973 47.6838C86.3259 48.9117 86.3259 50.2624 86.1748 51.5079C86.1477 51.7315 86.1206 51.9596 86.0663 52.1701C86.0431 52.2578 86.0198 52.363 85.9966 52.4639C85.9656 52.6261 85.9849 52.67 85.8881 52.7533C85.7176 51.9333 85.6672 51.0386 85.4967 50.223C85.4618 50.0607 85.4308 50.0037 85.3998 49.837C85.365 49.6528 85.3727 49.6002 85.3184 49.4336L84.8186 47.5215C84.7721 47.3856 84.7566 47.2847 84.7101 47.1488C84.6752 47.0479 84.5008 46.4603 84.5008 46.3945H84.497ZM83.5786 42.4213C83.6329 42.2196 83.6832 42.0661 83.7297 41.8468C83.9467 41.8688 84.0978 42.2591 84.2335 42.5178C84.3691 42.7722 84.497 43.0177 84.621 43.2809C84.7837 43.6317 84.6868 43.6536 84.4621 44.1229C84.3381 44.3816 84.218 44.6447 84.0978 44.9078C83.9777 44.8158 83.9273 44.6754 83.8731 44.5C83.8227 44.3377 83.7646 44.2237 83.7181 44.0571C83.629 43.7194 83.4391 43.3159 83.4391 43.0484L83.5786 42.4213ZM82.6447 40.6803C82.5827 40.5137 82.5052 40.4347 82.4665 40.2637C82.3774 39.869 82.3425 39.9392 82.3425 39.7418C82.3425 39.6629 82.3541 39.6673 82.3774 39.6191C82.5246 39.6629 82.7145 39.9743 82.8462 40.1628C83.3539 40.882 83.0671 40.9961 83.0322 41.4785C82.6641 41.2767 82.9625 41.5355 82.6409 40.6803H82.6447ZM78.5179 39.4392C78.8047 40.1409 78.7233 40.2637 78.6187 40.7724C78.3474 40.5663 78.4094 40.3514 78.3319 39.983L78.2118 39.584C78.1188 39.1981 77.6809 38.4745 77.4562 38.128C77.4484 38.1192 77.4329 38.0885 77.4252 38.0798C77.4213 38.071 77.4136 38.0622 77.4097 38.0578C77.3516 37.957 77.3555 38.0535 77.3438 37.8824C77.6926 37.9877 78.3629 39.0577 78.5218 39.4392H78.5179Z" fill="#67152C"/>
<path fill-rule="evenodd" clip-rule="evenodd" d="M86.6863 20.0733C86.6088 19.6874 86.3802 20.0865 86.6941 19.4155C86.7522 19.2883 86.7832 19.1787 86.8103 19.0076C86.853 18.7445 86.7561 18.3981 86.6321 18.192C86.1942 17.4728 85.7137 17.5955 85.3727 17.5078C85.5084 17.4026 85.892 17.385 86.0663 17.385C86.6437 17.385 87.1552 17.9201 87.3296 18.556C87.6434 19.7049 87.0893 20.4636 87.0893 20.8978L87.4032 20.7969C87.4109 20.7925 87.4148 20.7837 87.4226 20.7793C87.5776 20.6522 87.5466 20.7267 87.6473 20.6609C87.8139 20.5469 87.6589 20.5294 87.9302 20.5294V20.6127C87.7054 20.6697 87.7984 20.6829 87.5737 20.8276C87.5272 20.8583 87.5543 20.8364 87.504 20.8758C87.2366 21.0863 87.3606 20.9241 87.1668 21.0732C87.1591 21.0776 87.1513 21.0863 87.1475 21.0907C87.0312 21.1828 86.9498 21.1916 86.7987 21.1916C86.8181 20.9153 86.915 21.0381 86.8723 20.8583C86.8413 20.7267 86.791 20.6697 86.7561 20.4943C86.729 20.354 86.7135 20.2356 86.6863 20.0777V20.0733ZM84.8031 26.3269C84.3188 26.5374 83.7763 27.0636 83.9119 27.7171C83.9894 27.6513 84.0049 27.568 84.0514 27.4627C84.3188 26.8531 84.8109 27.011 85.334 27.0592C85.5936 27.0812 85.5781 27.2215 85.8455 27.2215C86.1787 27.2215 86.5081 26.9058 86.8026 26.7347C87.0583 26.5856 87.2908 26.4804 87.6008 26.4804C88.3061 26.4804 88.2634 27.5855 89.1469 27.0329C89.2477 26.9672 89.3368 26.8707 89.391 26.7698C89.5422 26.4672 89.3407 26.1515 89.794 26.1515C90.2707 26.1515 90.755 26.4058 90.9604 25.9454C91.0921 25.6515 90.9953 24.8665 90.9953 24.4148C90.9953 23.5641 92.1384 23.6693 91.8555 22.6168L91.5533 21.5512C91.2626 20.5469 92.336 20.9416 92.6382 20.9416C92.5956 20.7399 92.6189 20.7618 92.4949 20.6478C92.0415 20.2399 91.5455 20.0908 90.9875 20.2706L90.1467 20.6434C90.0149 20.7092 90.0265 20.7487 89.9025 20.8232C89.7282 20.9328 89.3678 21.2881 89.1585 21.5073L88.6238 21.9766C88.6354 21.4328 88.7904 21.6213 88.6238 20.9021C88.5851 20.7311 88.5851 20.5162 88.4998 20.3803C88.3913 20.2092 88.3177 20.2794 88.1511 20.3233C88.1743 20.104 88.1356 20.2838 88.2286 20.161C88.7866 19.4199 88.9028 18.9945 88.2363 18.3279C87.9534 18.0429 87.6744 17.7929 87.442 17.4464C87.2908 17.2184 87.2715 16.9202 87.1668 16.7448C87.0235 16.7141 86.8297 16.8588 86.5546 16.8983C86.0198 16.9684 85.5742 17.0035 85.1364 17.3631C85.0201 17.4596 84.993 17.4201 84.9775 17.5955C85.1131 17.6657 85.0434 17.6043 85.1247 17.6175L84.9775 17.6789C84.8922 17.8806 85.0007 17.7534 84.8574 17.8718C84.7721 17.942 84.776 17.9245 84.6946 18.0165C84.5435 18.1832 84.4079 18.3279 84.3188 18.5384C84.2684 18.6568 84.2916 18.613 84.2219 18.7182C84.1366 18.8498 84.1173 19.012 84.1018 19.205L84.342 19.4286C84.4854 19.5777 84.683 19.7005 84.9039 19.7005C85.2836 19.7005 85.4231 19.4813 85.5897 19.1962L85.6672 19.0778C85.7564 18.8936 85.6207 18.67 85.4541 18.5472C85.2952 18.5954 85.3844 18.5823 85.2875 18.6875C84.9194 19.0866 84.528 18.2577 85.0899 18.2577C85.8997 18.2577 85.6246 18.5866 85.892 19.0427C85.9656 18.9813 86.0005 18.9463 86.0005 18.7928C86.0005 18.2007 85.8842 18.4156 85.8184 18.1306C86.078 18.1393 86.1865 18.3498 86.2291 18.613C86.2485 18.7401 86.1671 19.1611 86.0818 19.2971C85.9578 19.4944 85.8184 19.6041 85.613 19.6786C85.1325 19.8584 84.7954 19.6216 84.7954 19.8672C84.7954 20.0689 84.8845 19.876 84.9426 20.1172C84.7527 20.2224 84.3459 19.9198 84.8419 20.6039C84.962 20.7706 85.0201 20.8714 85.179 21.0074C85.6866 21.4591 86.0315 21.2968 86.1516 21.481C85.9733 21.4854 85.3844 21.6871 85.2022 21.7705C85.0899 21.8231 85.0744 21.8275 84.931 21.8801C84.0708 22.1739 83.5515 23.0159 83.1369 23.8579C83.0788 23.9763 83.0633 24.0421 83.0013 24.1605C82.9005 24.3535 82.7959 24.5464 82.7881 24.7876C82.9625 24.7832 82.8811 24.7876 82.9703 24.7043C82.978 24.6999 82.9819 24.6911 82.9896 24.6867L83.1059 24.5727C83.3151 24.3491 83.7801 24.0289 83.8344 23.7044C83.939 23.0948 83.7491 23.4062 84.249 23.0159C84.3536 22.9326 84.4466 22.8712 84.5474 22.7747C84.6442 22.6826 84.7101 22.6256 84.8109 22.5379C84.8767 22.4809 84.8884 22.459 84.9542 22.4107C85.5316 21.9634 85.8455 21.7398 86.5391 22.152C87.1591 22.516 87.9922 22.5905 88.6316 22.2353C88.6936 22.2002 88.7207 22.1958 88.7827 22.1564C88.8718 22.1037 88.9454 22.0423 89.0346 21.9853C89.3097 21.7968 89.5732 21.6126 89.887 21.5073C90.4683 21.31 90.4063 21.3582 90.1467 21.9634C90.0537 22.1783 89.9994 22.3669 89.9025 22.5598C89.4802 23.3887 88.6626 23.8272 87.9844 24.3491C87.9108 24.4061 87.8566 24.4762 87.7946 24.5464C87.3412 25.0639 87.6008 25.4147 87.6047 25.6121L87.039 25.7568C86.5585 25.9015 85.9268 25.884 85.3224 26.1295C85.2177 26.1734 85.1247 26.169 85.0279 26.2085C84.9039 26.2567 84.9465 26.2655 84.807 26.3269H84.8031Z" fill="#67152C"/>
<path fill-rule="evenodd" clip-rule="evenodd" d="M89.9413 37.343C89.9607 37.058 90.3017 36.6721 90.4412 36.4221L90.6698 36.0186C90.6737 36.0099 90.6814 36.0011 90.6853 35.9923L92.0803 33.3128C92.119 33.2295 92.15 33.1857 92.1926 33.1111L92.7351 32.1112C92.8126 31.9753 92.8863 31.8876 92.9676 31.756C93.0877 31.5543 93.3977 31.2122 93.4132 30.9798C93.1846 31.0412 93.0103 31.2385 92.8436 31.4096C92.8359 31.4183 92.8126 31.4403 92.8049 31.449C92.5453 31.7209 92.2818 31.9402 92.0338 32.2253L91.5998 32.8085C91.5959 32.8129 91.5881 32.8217 91.5804 32.8304L90.166 34.6592C89.7902 35.2775 89.1392 36.501 89.1392 37.2553C88.9803 37.1237 89.1508 37.1808 88.9919 37.0492C88.8989 37.0755 88.8718 37.115 88.8059 37.172L88.6742 37.3123C88.5037 37.514 88.2712 37.8649 88.2634 38.1675C88.2557 38.5665 88.3681 38.9525 88.6277 39.1937C88.7866 39.3428 88.8718 39.3778 89.0811 39.4656C89.3058 39.562 89.5034 39.5708 89.7902 39.5708C89.7747 39.3778 89.7979 39.5094 89.7475 39.4129C89.6507 39.2287 89.4763 39.0753 89.3639 38.8955C89.267 38.742 89.2089 38.5534 89.1663 38.3736C89.0578 37.9175 88.9803 38.071 89.0965 37.5009C89.143 37.5754 89.0965 37.4307 89.1469 37.6105C89.2554 37.9833 89.0617 38.071 89.4259 38.2859C89.5499 38.0754 89.9219 37.8035 90.1389 37.6895C90.2474 37.6325 90.259 37.6193 90.352 37.5579C90.5574 37.4263 90.7667 37.3649 90.9953 37.2948C91.7896 37.036 91.6966 37.1983 92.0454 37.1632C92.212 37.1457 92.3903 37.093 92.6034 37.0887C92.7119 37.0887 92.7894 37.0755 92.8708 37.0667L93.7697 37.0887C93.7697 37.2378 93.7581 37.2948 93.6612 37.3781C92.9793 38.0008 92.5918 38.2903 91.7858 38.7288C91.6773 38.7858 91.5533 38.7902 91.4293 38.8209C91.5261 38.913 91.6966 38.9305 91.8323 38.9437C92.0415 38.9612 92.088 38.9393 92.2701 38.9875C92.2314 39.0182 92.274 38.9919 92.2004 39.0314L91.8439 39.2463C91.4835 39.448 91.0922 39.4392 90.7008 39.4392C90.5187 39.4392 90.3094 39.3384 90.1893 39.5226C90.4218 39.6629 90.6427 39.8427 90.91 39.9085L91.7974 40.062C92.0493 40.062 92.5685 39.8471 92.7894 39.698C93.7349 39.0753 94.0332 38.4262 94.8586 37.7816C95.4553 37.3123 96.4745 37.1588 97.1254 37.6675C97.1448 37.6807 97.1874 37.7158 97.2107 37.7377C97.3192 37.8342 97.4006 38.0008 97.5284 38.0403C97.5168 37.9043 97.5207 37.9263 97.4626 37.8254C97.3424 37.6193 97.1991 37.4658 97.0208 37.3342C96.9588 37.2904 96.9588 37.2816 96.893 37.229C96.6721 37.0624 95.8661 36.7203 95.6258 36.6808C95.4282 36.6501 95.4205 36.6326 95.2655 36.5931C95.2655 36.3212 95.2965 36.4352 95.1918 36.3037L94.971 36.0142C94.847 35.7599 94.8392 35.7994 94.847 35.5494C94.8547 35.374 94.785 35.4047 94.9012 35.3082C94.9012 35.5625 94.9322 35.6985 94.9361 35.8871C95.188 35.909 95.0911 36.0844 95.5212 35.9704C95.6568 35.6459 95.6103 35.3345 95.4708 35.0363L95.436 34.953C95.3933 34.8609 95.4708 34.9574 95.3778 34.8565C95.5251 34.8697 95.5793 34.9837 95.6568 35.1196C95.715 35.2249 95.746 35.3959 95.746 35.5582C95.746 35.9923 95.6607 36.1151 95.2693 36.2204C95.3352 36.33 95.5483 36.5098 95.7072 36.5098C96.4086 36.5098 96.18 35.3345 95.9203 34.9442C95.653 34.5407 95.5948 34.6986 95.3042 34.5276C95.2732 34.6021 95.2616 34.6592 95.2306 34.7337C94.7966 34.7337 94.9167 34.8039 94.6842 34.9837C94.6377 34.874 94.6494 35.0188 94.6494 34.8609C94.6494 34.6635 94.7889 34.5232 94.8315 34.3215C94.6029 34.2689 94.3122 34.5495 94.1727 34.3215C94.3936 34.2645 94.9903 33.6637 95.0988 33.4663C95.3003 33.1023 95.622 32.5936 95.5251 32.1288C95.4282 32.2077 95.3662 32.3568 95.2926 32.484C95.0756 32.8392 94.816 33.0848 94.5137 33.3391C94.0875 33.6944 93.5837 33.8435 93.0839 34.0364C92.987 34.0715 92.7855 34.1241 92.7041 34.1811C92.522 34.3171 92.5763 34.2952 92.3205 34.3259C91.9795 34.3697 91.7819 34.4399 91.5455 34.6021C91.406 34.6986 91.4254 34.7863 91.344 34.953L90.817 36.0932C91.0456 36.0888 90.9178 36.0888 91.0185 35.9923L91.344 35.6985C91.4021 35.6503 91.4254 35.6371 91.4758 35.602L91.8865 35.3652C92.8901 34.931 92.7468 34.8609 93.9247 34.7337C94.3781 34.6855 94.2929 34.8609 94.1689 35.1372C94.0681 35.3696 93.9751 35.5362 93.8201 35.7336C93.7116 35.8739 93.7426 35.8607 93.607 35.9879C93.4869 36.0976 93.4442 36.2204 93.4442 36.3826L93.6264 36.4221C93.4326 36.4221 93.235 36.4221 93.0412 36.4221C92.8088 36.4221 92.7429 36.4616 92.5336 36.4659C91.9563 36.4703 92.0338 36.5229 91.561 36.6457C91.251 36.7291 90.9759 36.7905 90.693 36.9439C90.5148 37.0448 90.1118 37.3255 89.9374 37.3299L89.9413 37.343Z" fill="#67152C"/>
<path fill-rule="evenodd" clip-rule="evenodd" d="M75.5536 28.831C75.7396 28.6906 75.6582 28.5503 75.728 28.2828C75.7667 28.1293 75.7396 28.2916 75.7667 28.1205L75.8442 27.7127C75.976 27.8223 75.9179 28.0811 75.8752 28.41C75.852 28.5766 75.8287 28.5284 75.8055 28.7476L75.8287 29.8835C75.8442 30.0326 75.8404 30.3659 75.697 30.4843C75.6466 30.2387 75.4141 29.7826 75.2785 29.5546C75.015 29.1072 74.9724 28.9143 74.581 28.5678L74.0811 28.103C73.9843 28.0153 73.465 27.5417 73.3643 27.511C73.3759 27.3487 73.341 27.3838 73.4728 27.3443C73.4418 26.9189 73.3643 27.2917 73.3643 26.1032C73.3643 25.1779 73.8099 25.7393 74.3136 26.3094C74.3563 26.3576 74.3485 26.3401 74.3873 26.3883C74.4376 26.4453 74.4686 26.5023 74.5229 26.5637C74.8716 26.9759 75.5459 28.2959 75.5536 28.8266V28.831ZM76.0651 23.1299C76.0225 23.6737 76.0651 24.3052 76.0651 24.8666C76.0651 25.5024 75.9566 26.055 75.9566 26.6426C75.9566 26.8838 75.976 27.0329 75.8481 27.1382C75.759 26.7654 75.263 26.5681 75.1041 26.2436C75.1003 26.2348 75.0964 26.226 75.0925 26.2173L74.9801 25.9278C74.9763 25.9191 74.9685 25.9103 74.9646 25.9059L74.4609 25.1955C74.2129 24.8227 73.9106 24.1912 73.8293 23.722C73.7673 23.3492 73.7673 22.9063 73.7673 22.5116L73.6936 22.6782C73.6278 22.8273 73.5503 22.9326 73.5193 23.1036C73.2713 24.507 73.682 24.6517 73.6936 25.2437C73.5193 25.2262 73.4689 25.0814 73.3604 24.9587C73.2597 24.849 73.3914 24.928 73.2558 24.8709C73.155 25.0902 73.1977 25.1955 73.1473 25.4498C72.9962 25.4103 73 25.3621 72.9458 25.2262C72.876 25.0595 72.8334 24.9148 72.6358 24.9148C72.4653 24.9148 72.4343 25.0157 72.3452 24.8753C72.7133 24.8753 72.6552 24.9499 72.7482 24.7525C72.6707 24.6341 72.7559 24.6955 72.5854 24.6473C72.2057 24.5508 71.8298 24.735 71.5702 24.9893C71.2292 25.327 70.8417 26.1997 71.9073 26.1997C71.8802 25.8357 71.7252 26.0638 71.7252 25.7436C71.7252 25.463 71.7445 25.3709 71.9422 25.1648C71.946 25.1604 71.9577 25.1516 71.9615 25.1472C71.9654 25.1428 71.9732 25.1341 71.9809 25.1253C72.0739 25.02 72.132 25.0025 72.3103 25.0025C72.2599 25.213 72.1824 25.0683 72.0274 25.2612C72.0003 25.2919 71.9422 25.3884 71.9189 25.4235C71.8104 25.5945 71.8182 25.7831 71.9654 25.9322C72.1049 26.0725 72.2638 25.9892 72.4227 26.0769C72.2793 26.2962 72.0042 26.1076 71.8027 26.4497C71.6593 26.3708 71.512 26.3883 71.3532 26.3006C71.1013 26.1646 70.7216 26.0418 70.4464 26.0024C69.6676 25.8971 69.8536 26.0155 69.2103 26.0769V26.1603C69.4389 26.1603 69.6714 26.1471 69.8846 26.1822C70.5239 26.2874 71.1594 26.8356 71.4074 27.5153C71.5392 27.8837 71.6554 28.2521 71.7213 28.6468C71.76 28.8792 71.8027 29.0283 71.8453 29.252C71.8647 29.3616 71.884 29.4975 71.9112 29.594L72.0623 30.1685C72.2212 30.5895 72.4304 31.0061 72.7094 31.335C73.2209 31.9446 73.868 32.1507 74.6546 32.1507C74.612 31.9402 74.6508 31.9534 74.488 31.8832C74.0114 31.6771 73.6781 31.3306 73.3333 30.914C73.3294 30.9096 73.3216 30.9009 73.3139 30.8921C73.248 30.8132 72.8954 30.1685 73.1783 30.3834C73.2054 30.4009 73.2131 30.4229 73.2286 30.4448L73.2635 30.4886C73.3333 30.5676 73.3798 30.6071 73.4611 30.6772L73.8099 30.9009C73.9145 30.9491 73.7556 30.9316 73.9494 30.9491L73.7789 30.686C73.3449 30.1685 73.0543 29.5107 72.8683 28.8266C72.7908 28.5415 72.4614 27.7258 72.7637 27.8618C72.9497 27.9451 73.0775 28.0811 73.2364 28.2038L74.736 29.6028C74.9143 29.8615 75.1158 30.0501 75.1584 30.1159L75.4684 30.7167C75.5187 30.8395 75.5265 30.9184 75.5769 31.05C75.7202 31.4184 75.5962 31.4403 75.883 31.6552C76.0147 31.4315 76.2046 31.2956 76.3596 30.9974C76.3945 30.9272 76.3751 30.9623 76.4061 30.8877L76.6154 30.4667C76.6967 30.3088 76.72 30.1729 76.7626 29.9712C76.8324 29.6291 76.7859 29.0985 76.8362 28.6906C76.8633 28.467 76.8401 28.2916 76.8479 28.1118C76.8517 27.932 76.9021 27.6557 76.8982 27.5241C76.8944 27.3794 76.8672 27.3838 76.8634 27.1908C76.8595 27.0812 76.8711 26.9716 76.8595 26.8619C76.8401 26.647 76.751 26.5199 76.7277 26.3532C76.6735 26.0024 76.6851 25.4454 76.6154 25.1604L76.2744 23.5641C76.2356 23.3843 76.2705 23.1606 76.0651 23.1431V23.1299Z" fill="#67152C"/>
<path fill-rule="evenodd" clip-rule="evenodd" d="M82.4549 17.6745C82.4549 17.1307 82.7727 16.9728 82.8192 16.7667C82.6719 16.5167 82.5479 16.5693 82.3232 16.5036C82.1565 16.4509 82.2224 16.4378 82.0597 16.3851C81.9822 16.3588 81.8465 16.3413 81.7574 16.315C81.2149 16.1571 80.4206 16.0694 79.8781 16.2974C79.6417 16.3983 79.5642 16.3895 79.3705 16.5518L79.0333 16.9991C78.6497 17.8236 79.2891 19.3409 78.859 20.1478C78.797 20.2662 78.7815 20.2794 78.704 20.3846C78.5916 20.5337 78.4482 20.525 78.6071 20.8714C78.8783 21.4635 79.1573 22.2265 79.6727 22.5993C79.8354 22.7177 79.7657 22.6914 79.9943 22.7703C80.1183 22.8142 80.1919 22.8843 80.3663 22.8843L81.0948 22.8449C80.9979 22.6212 81.0909 22.6782 80.8778 22.5554C80.6531 22.4239 80.5329 22.2879 80.3818 22.0423C80.3392 21.9722 80.3237 21.9371 80.2811 21.8669L79.9168 20.9547C79.8393 20.6258 79.6804 20.1961 79.7812 19.9943C79.8781 20.025 79.8974 20.0952 80.1454 20.2838C80.2966 20.0294 80.3237 20.1259 80.2656 19.7356C80.0408 18.1349 80.2074 18.9375 80.6996 19.2444C81.0638 19.4725 81.9124 19.3102 82.327 19.2006C82.4007 19.183 82.5014 19.1699 82.606 19.148C82.7882 19.1129 82.7262 19.1699 82.8075 19.0471C82.8889 18.8936 82.4433 18.3279 82.4433 17.6832L82.4549 17.6745Z" fill="#67152C"/>
<path fill-rule="evenodd" clip-rule="evenodd" d="M82.42 5.48309C82.1178 5.32083 82.327 5.40415 82.0131 4.54023C81.9744 4.43498 81.9395 4.34727 81.8853 4.22886L81.6993 3.86049C81.5714 3.63683 81.2963 3.30793 81.2498 3.12813C81.4823 3.13251 81.335 3.12374 81.4125 3.19391L81.6915 3.4965C81.7458 3.56667 81.738 3.5579 81.7962 3.62368C82.0015 3.85172 82.2146 4.21571 82.3193 4.52268C82.5285 5.14541 82.4239 5.2682 82.42 5.48747V5.48309ZM82.6021 7.59246V7.46967C82.6796 7.44774 82.7339 7.43897 82.7881 7.39073C83.1136 7.09691 83.1989 6.03564 82.7494 6.02249C82.8966 5.30328 83.1718 4.8779 82.5479 3.93943C82.2534 3.4965 81.6644 2.94394 81.273 2.6545C81.18 2.58434 81.1839 2.59749 81.0987 2.52294L80.5794 2.07563C80.1028 1.65463 79.4208 0.83018 78.8124 0.689847C78.5838 0.637223 78.6458 0.571442 78.2971 0.571442V0.654764C78.5373 0.65915 78.5102 0.729316 78.6342 0.812638C78.7698 0.900346 78.8512 0.917888 79.0294 1.08015C79.1534 1.19855 79.0101 1.20732 78.8938 1.19417C78.7776 1.17663 78.7853 1.14593 78.6923 1.124C78.6148 1.10646 78.5296 1.11085 78.4482 1.11085C78.4559 1.11523 78.4676 1.11085 78.4714 1.124C78.4908 1.19855 78.4676 1.07576 78.5993 1.22925C78.6846 1.32573 78.5993 1.25995 78.7272 1.37397C78.7698 1.40905 78.7543 1.39151 78.7892 1.42659L78.9829 1.65902C79.1999 1.94407 79.2464 2.1151 79.3588 2.43085C79.7579 3.5579 79.4324 5.45239 80.1144 6.32508C80.3818 6.66714 80.8235 6.78993 81.2265 6.84256C81.4823 6.87764 81.4745 6.86887 81.4745 7.18023C81.6644 7.29425 81.9434 7.53984 82.2418 7.55299C82.4161 7.56176 82.4743 7.52229 82.6099 7.59246H82.6021Z" fill="#67152C"/>
<path fill-rule="evenodd" clip-rule="evenodd" d="M84.6442 8.91249C84.6442 8.41255 85.0317 7.79421 85.2371 7.43461C85.3069 7.3162 85.2139 7.3469 85.3727 7.29866C85.3689 7.57933 85.303 7.57494 85.2836 7.61002C85.2139 7.7372 85.2371 7.75036 85.1906 7.87753C84.9465 8.5485 84.8612 8.85548 84.8612 9.73694C84.5939 9.51329 84.6404 9.24578 84.6404 8.91249H84.6442ZM84.1676 9.03528C84.1676 9.3905 84.1754 9.44312 84.3265 9.80711L84.5706 10.2763C84.4234 10.2763 84.4544 10.2632 84.3498 10.3158C84.2219 10.9473 84.5125 11.5569 85.0085 11.5569C85.3224 11.5569 85.8222 11.1622 85.8842 10.8947C85.7873 10.7807 85.8842 10.8728 85.7835 10.8026L85.6633 10.7324C85.9578 10.7324 86.0237 10.6491 86.2368 10.557C86.574 10.4123 86.9111 10.215 87.0428 9.73256C87.4574 8.21959 86.4345 6.55314 87.4071 5.14543C87.5078 5.00071 87.4729 5.14981 87.4884 4.94808C87.6822 4.94808 87.5427 4.94808 87.5969 4.90862L87.2908 4.97878C87.1126 5.06649 87.1707 5.07965 87.0467 5.11473C87.0777 5.04018 87.0738 4.99194 87.1048 4.93054L87.1862 4.81652C87.4884 4.47446 87.4303 4.72881 87.4846 4.492C87.1474 4.31659 86.3492 5.41294 86.1555 5.71553L86.0935 5.81201C86.0896 5.82078 86.0818 5.82955 86.078 5.83394C86.0353 5.89533 86.0857 5.81639 86.047 5.88217C85.52 6.6847 85.0899 7.03992 84.5706 7.89069C84.3846 8.19328 84.1638 8.63182 84.1638 9.04405L84.1676 9.03528Z" fill="#67152C"/>
<path fill-rule="evenodd" clip-rule="evenodd" d="M85.6323 15.4423C85.7176 15.495 85.7292 15.5125 85.8532 15.5257V15.609C85.4541 15.6178 85.2022 16.144 84.9387 16.144C84.7178 16.144 84.3846 15.9598 84.2102 15.8546C83.9816 16.3896 84.4892 16.6264 83.9467 17.6219C83.846 17.8061 83.8343 17.9683 83.7413 18.135C83.4236 18.7182 83.5166 18.556 83.5127 19.284C83.5089 19.7532 83.505 19.7444 83.846 20.0251C83.9583 20.1172 83.908 20.1084 84.0978 20.1084C84.0862 19.9242 84.0823 20.0295 84.0165 19.8716C83.9738 19.7707 83.9506 19.7137 83.9118 19.6216C83.7801 19.3322 83.7336 19.1787 83.7336 18.9112C83.7336 18.7928 83.7491 18.8366 83.8072 18.7884C83.8188 18.9375 83.8537 18.9857 83.8808 19.1173H84.0281C84.0901 18.8191 84.0048 18.8235 84.125 18.3192C84.2025 17.9946 84.1172 18.2227 84.2645 17.8982C84.311 17.7929 84.3148 17.7447 84.373 17.6482C84.714 17.0606 84.9542 16.8895 85.4502 16.6396C85.8338 16.4466 85.9927 16.6439 86.3453 16.5343C86.5003 16.4861 86.8258 16.2229 87.1436 16.4203C87.3683 16.565 87.5078 16.7843 87.5698 17.0913C87.7403 16.9597 87.6085 16.6966 87.5349 16.5519C87.4419 16.3501 87.4846 16.3984 87.3141 16.1791C87.3102 16.1747 87.3024 16.1659 87.2986 16.1572C87.2947 16.1528 87.2869 16.144 87.2792 16.1352L87.0234 15.8853C86.9808 15.8502 86.8336 15.7493 86.7987 15.7274C86.7057 15.6748 86.6282 15.6748 86.5158 15.6353C86.4267 15.6046 86.3686 15.5608 86.2368 15.5344C86.0702 15.5037 86.0159 15.5476 85.8842 15.4774C85.9229 15.3546 85.9113 15.3766 86.0663 15.3503C86.5778 15.2669 86.9576 15.3766 87.3373 15.7362C87.4381 15.8283 87.5621 16.0168 87.6279 16.1528C88.0852 17.1132 87.6396 16.4071 88.3603 16.8544C89.1392 17.3412 89.2205 18.7007 88.8989 19.5032C88.7439 19.8848 88.5463 19.9812 88.9919 19.9812C89.0462 19.7576 89.1508 19.8672 89.3174 19.7707C89.4027 19.7225 89.3755 19.7093 89.4724 19.6567C90.0885 19.3234 90.3481 19.1305 89.9955 18.3455C89.7127 17.7184 89.8134 17.7096 89.8289 17.4596C90.073 17.6438 89.9723 17.6701 90.4024 17.3631C90.6194 17.2097 91.189 16.4905 91.2549 16.2186C91.0689 16.2756 90.6891 16.5782 90.3753 16.7097L89.9916 16.8983C89.8367 16.986 89.9645 16.9378 89.8289 17.0474C89.8095 16.9509 89.7746 16.8676 89.763 16.7887C89.7281 16.5562 89.8173 16.3589 89.5964 15.859C89.5267 15.6967 89.4414 15.5827 89.3097 15.4818C88.8137 15.0959 88.3448 15.2582 87.8023 14.995C87.0777 14.6486 86.5352 14.2451 85.7602 15.1661C85.675 15.2669 85.6866 15.3064 85.6284 15.4292L85.6323 15.4423Z" fill="#67152C"/>
<path fill-rule="evenodd" clip-rule="evenodd" d="M90.3404 29.4098C90.3404 29.0721 90.4063 28.9143 90.5225 28.7082C90.8557 28.1337 91.1774 28.0065 91.6462 27.7872C91.7509 27.739 91.8477 27.7302 91.9097 27.7565C91.8632 27.8969 91.9291 27.796 91.7974 27.8749C91.5455 28.0196 91.7044 27.9451 91.499 28.16C91.2394 28.4363 91.2122 28.3573 90.9216 28.7476C90.5496 29.2476 90.5729 29.401 90.3365 29.4098H90.3404ZM95.0872 26.5988C95.0252 26.2918 94.7268 26.4365 94.3083 26.5023C93.9828 26.5549 93.8085 26.6295 93.5411 26.7523L92.4484 27.1689C92.3089 27.2171 92.212 27.2215 92.0686 27.2741L91.3169 27.5373C91.1231 27.5986 90.8868 27.7916 90.7124 27.9276C90.3171 28.2301 89.9761 28.6731 89.9761 29.2826C89.9761 29.9229 89.9994 29.5677 90.0769 29.8747C90.1234 30.0501 90.1738 30.1685 90.2978 30.3264C90.3559 30.4009 90.3946 30.4272 90.4528 30.4799C90.7201 30.7254 90.9642 30.8482 91.3014 30.9228C91.6966 31.0105 91.9795 30.9842 92.2934 30.743C92.4832 30.5983 92.7157 30.208 92.8242 29.9799L93.4403 28.5678C93.6961 27.8969 94.3626 27.0285 95.0523 26.9628C94.9516 26.8838 94.8431 26.8531 94.7229 26.84C94.6222 26.8268 94.6261 26.8444 94.5253 26.8137L94.3975 26.7523L95.0911 26.5856L95.0872 26.5988Z" fill="#67152C"/>
<path fill-rule="evenodd" clip-rule="evenodd" d="M85.6324 24.7832C85.6866 24.5113 85.7835 24.3798 85.8377 24.1035C85.8842 23.8491 85.9734 23.643 85.9269 23.4194C85.8997 23.4676 85.923 23.415 85.8881 23.5027C85.8842 23.5158 85.8726 23.5509 85.8687 23.5641C85.8533 23.6036 85.8532 23.6211 85.8377 23.6518L85.4309 24.3885C85.0899 24.9718 84.776 25.27 84.2296 25.5463C84.001 25.6603 83.5283 25.8138 83.2997 25.8138C83.0129 25.8138 82.9238 25.7831 82.7145 25.8927L82.9625 26.1515C84.001 26.9759 83.9661 26.6382 84.2645 26.4058C84.4931 26.2304 85.2565 25.8927 85.52 25.8445C85.706 25.8094 85.8068 25.748 85.9772 25.7042C86.1477 25.6603 86.3337 25.6515 86.481 25.6121C86.9576 25.4893 87.3839 25.5375 87.3839 25.3139C87.3839 24.906 87.2327 24.7394 87.8333 24.1693C88.1821 23.836 88.1782 23.9763 88.1085 23.4632C88.0348 22.9107 88.1743 22.5028 87.9457 22.5554C87.8411 22.5818 87.938 22.5598 87.8527 22.6168C87.5737 22.8098 87.3645 22.5642 87.2327 22.7879C87.2134 22.8186 87.0545 23.4369 86.698 23.836L85.923 24.6517C85.7564 24.8008 85.8339 24.8271 85.6324 24.7745V24.7832Z" fill="#67152C"/>
<path fill-rule="evenodd" clip-rule="evenodd" d="M77.3167 22.6212C77.6345 23.1957 78.425 24.542 78.8124 24.9806C78.9054 25.0858 78.9829 25.1604 79.0914 25.2437C79.4208 25.5024 79.9982 25.6121 80.3004 25.441C80.5794 25.2832 81.2808 24.6911 81.2885 24.2877C81.0289 24.2964 80.9514 24.4938 80.374 24.4938C79.5874 24.4938 79.7153 24.3228 79.7153 24.0377L79.1961 23.8009C79.1418 23.7702 79.1496 23.7834 79.0953 23.7483L78.6265 23.2878C78.4327 23.0554 78.4405 23.0554 78.4366 22.8844L79.0294 23.1606C79.5177 23.3843 79.8974 23.4018 80.374 23.3799C80.5329 23.3711 80.6802 23.4062 80.5174 23.2615C80.4554 23.2045 80.3314 23.1431 80.2384 23.1124C79.9129 23.0028 79.6572 22.8931 79.3976 22.6607C79.1457 22.4414 78.9907 22.2792 78.8124 21.959C78.58 21.538 78.6846 21.674 78.4715 21.4547L78.301 21.5687C77.8127 21.9853 77.6112 21.9678 77.123 22.2616L77.3167 22.6212Z" fill="#67152C"/>
<path fill-rule="evenodd" clip-rule="evenodd" d="M82.6021 7.59246C82.5362 7.87751 82.358 7.56614 82.699 8.55724L83.1717 10.2544C83.3035 10.7149 83.3887 11.1753 83.4972 11.6621C83.5592 11.9296 83.5709 12.1533 83.6367 12.4164L83.97 14.7275C84.0436 14.881 84.1133 14.8152 84.2838 14.8284C84.5977 14.8591 84.6752 15.3239 84.7217 14.2056C84.745 13.6531 84.8031 12.7935 84.9658 12.2541C85.1402 11.6709 85.0588 11.7717 84.8108 11.7103C84.5977 11.6577 84.714 11.6139 84.5396 11.5612C84.3342 11.7191 84.5202 11.8112 84.2102 11.8901C84.2025 11.399 83.9584 10.614 83.846 10.1141C83.8189 9.99566 83.7956 9.94742 83.7607 9.83778C83.6794 9.57904 83.5864 9.11419 83.4585 8.73266C83.4197 8.61864 83.4159 8.56163 83.3849 8.44322L83.2299 7.87312C83.1834 7.68455 83.1291 7.47844 83.0051 7.38196C82.8385 7.43458 82.8385 7.56614 82.6021 7.58807V7.59246Z" fill="#67152C"/>
<path fill-rule="evenodd" clip-rule="evenodd" d="M85.1557 27.3443C85.1557 27.6206 85.3069 27.739 85.396 27.9407L85.5316 28.2389C85.7835 28.7959 85.9307 28.8748 86.2213 29.1906C86.6398 29.651 86.8297 29.6993 87.4381 29.9624C87.6163 30.0369 87.7946 30.1466 87.938 30.265C88.0503 30.3571 88.2596 30.5588 88.2906 30.6904H88.3991C88.4456 30.0326 88.0232 29.5852 87.5427 29.1774C87.3218 28.9932 87.1513 28.8617 86.9963 28.5152C86.636 27.7127 87.0893 26.8005 86.7018 26.9847L86.2213 27.318C85.6827 27.6118 85.1441 26.954 85.1441 27.3399L85.1557 27.3443Z" fill="#67152C"/>
<path fill-rule="evenodd" clip-rule="evenodd" d="M80.9591 26.3532C81.5791 26.3532 81.9821 26.0287 82.1642 25.9805C82.1642 25.6296 82.0596 25.6603 81.8581 25.2525C81.7806 25.0946 81.7651 25.0771 81.6993 24.8973C81.6566 24.7876 81.5946 24.6385 81.5443 24.5596C81.4551 24.5596 81.4939 24.5552 81.4164 24.6034C81.3466 24.6473 81.366 24.6341 81.3156 24.6999C81.2691 24.7613 81.2265 24.8534 81.18 24.9192C81.149 24.963 81.1296 24.9894 81.0948 25.0288C81.0831 25.042 81.0599 25.0727 81.0405 25.0946L80.6414 25.5112C80.56 25.5682 80.5058 25.6165 80.4322 25.6472L79.9284 25.8226C78.8512 25.8226 78.9519 25.1692 78.4482 25.5507C78.3823 25.6033 78.3513 25.634 78.2777 25.691C78.1963 25.7568 78.1847 25.7568 78.1111 25.8314C78.0026 25.9454 77.9251 26.0506 77.8398 26.1866C77.5376 26.6865 77.371 26.954 77.371 27.6381C77.7003 27.2084 77.5763 27.1864 77.9677 26.6602C78.0956 26.4848 78.1886 26.3795 78.3978 26.3225C78.8551 26.191 79.3162 26.1296 79.7967 26.2655C80.312 26.4102 80.374 26.362 80.9514 26.362L80.9591 26.3532Z" fill="#67152C"/>
<path fill-rule="evenodd" clip-rule="evenodd" d="M82.6757 17.9201L82.7842 18.3762C82.8191 18.5253 82.8307 18.5428 82.9431 18.6481L82.9819 18.6831C82.9857 18.6875 82.9974 18.6963 83.0012 18.7007C83.3926 18.4069 83.1562 18.2884 83.5476 18.2884C83.6019 18.0253 83.6057 17.7008 83.5747 17.4333C83.5515 17.2535 83.4856 16.6483 83.6871 16.5474C83.8111 16.486 83.9235 16.5299 83.9739 16.3326C84.1211 15.7493 83.8034 15.587 84.7217 15.6835C84.7682 15.6879 84.8845 15.6967 84.9271 15.6967C85.0705 15.7011 84.9348 15.7581 85.0821 15.644C85.0395 15.4555 84.8767 15.3458 84.745 15.2406C84.6365 15.1529 84.6171 15.1573 84.4892 15.1134C84.2683 15.0432 84.2102 14.9336 83.8266 15.1748C83.5399 15.3546 83.3229 15.9028 83.2337 16.2405C83.0361 17.0035 82.6719 17.5473 82.6719 17.9157L82.6757 17.9201Z" fill="#67152C"/>
<path fill-rule="evenodd" clip-rule="evenodd" d="M83.5515 19.9067C83.4663 19.7576 83.443 19.8102 83.4159 19.5602C83.3888 19.2971 83.5399 18.7665 83.3616 18.7226C83.257 18.6963 83.1524 18.9375 83.1059 19.0296C82.5866 20.0996 81.4706 21.503 81.4706 22.88C81.4706 23.2264 81.5365 23.8448 81.6489 24.086C81.6954 24.1912 81.6915 24.1518 81.7264 24.2877L81.8 24.4982C81.8039 24.507 81.8116 24.5114 81.8194 24.5201L81.986 24.8271C81.986 24.6078 81.9976 24.5815 81.9511 24.4149C81.7613 23.7132 81.8698 22.4195 82.1333 21.81C82.8811 20.0909 83.257 20.411 83.5283 19.9593L83.5593 19.9111L83.5515 19.9067Z" fill="#67152C"/>
<path fill-rule="evenodd" clip-rule="evenodd" d="M88.6974 20.2356C88.6974 20.718 88.7943 20.6259 88.8447 21.0206C88.8679 21.1828 88.8563 21.1434 88.9145 21.2706C89.0733 21.2574 89.2516 21.0908 89.3833 21.0162L90.0924 20.5382C90.7202 20.0207 91.1387 19.5646 91.1387 18.6218C91.1387 18.3455 91.1038 18.2622 91.1038 18.0034C91.003 18.135 90.9023 18.6788 90.7977 18.8937C90.6233 19.2489 90.5342 19.2883 90.2474 19.5076C90.1506 19.5822 90.2048 19.5602 90.0886 19.6173L88.9416 20.0953C88.8641 20.126 88.6974 20.1347 88.6974 20.2356Z" fill="#67152C"/>
<path fill-rule="evenodd" clip-rule="evenodd" d="M75.9179 32.8392C76.0264 32.8392 76.3286 32.6901 76.441 32.5629C76.5069 32.4884 76.5495 32.4182 76.6037 32.3349C76.7975 32.0191 76.8789 31.7955 76.8362 31.392C76.8052 31.0719 76.8052 30.9623 76.6115 30.8175C76.5069 31.0412 76.5224 31.1245 76.3558 31.3175L76.0031 31.7034C75.8675 31.8349 75.7668 31.9358 75.5963 32.0279C75.0499 32.3261 75.0886 32.1945 74.8988 32.1989C74.8523 32.1989 74.8019 32.2209 74.7128 32.2252C74.7244 32.3787 74.7438 32.4621 74.8329 32.541C74.9491 32.6462 75.6001 32.8436 75.9179 32.8436V32.8392Z" fill="#67152C"/>
<path fill-rule="evenodd" clip-rule="evenodd" d="M80.9941 13.7891C80.9941 13.9206 81.0754 14.096 81.118 14.2276L82.0054 16.1177C82.1371 16.2537 82.0558 16.1089 82.3619 16.2887C82.4549 16.3457 82.4316 16.3326 82.544 16.3721C82.7068 16.4291 82.6254 16.3808 82.7455 16.4729C82.7455 16.3194 82.7571 16.337 82.7184 16.2186L82.637 16.0212C82.4898 15.6792 82.0519 15.0433 81.8 14.7363C81.7962 14.7319 81.7884 14.7231 81.7807 14.7144C81.6567 14.5653 81.1103 13.8899 81.0638 13.7277C81.0328 13.7364 80.9902 13.7057 80.9902 13.7891H80.9941Z" fill="#67152C"/>
<path fill-rule="evenodd" clip-rule="evenodd" d="M90.2319 31.1464C90.5651 31.1464 90.6155 31.05 90.7085 30.8965C90.5884 30.8044 90.5148 30.7342 90.3908 30.6333C90.383 30.6246 90.3559 30.607 90.3481 30.5983C90.3404 30.5939 90.3326 30.5851 90.3288 30.5807C90.3249 30.5763 90.3171 30.5676 90.3094 30.5588C90.1583 30.4009 89.9955 30.2124 89.9451 29.9799C89.918 29.8615 89.9219 29.7168 89.6855 29.6949C89.6274 29.9405 89.4647 29.958 89.4647 30.3965C89.4647 30.4623 89.5073 30.686 89.5267 30.7386C89.5848 30.8746 89.515 30.7342 89.608 30.8526C89.6119 30.857 89.6197 30.8658 89.6274 30.8745C89.763 31.0368 90.0033 31.1421 90.2319 31.1421V31.1464Z" fill="#67152C"/>
<path d="M22.8273 42.8862H22.0484C21.3781 40.0839 20.297 38.3385 18.8012 37.65C18.0456 37.3123 16.8715 37.1413 15.2944 37.1413H8.60238V50.7054H14.1203C15.5153 50.7054 16.5073 50.3107 17.0846 49.5169C17.5651 48.8591 17.8945 47.6882 18.0689 45.9954H18.9369V57.5904H18.0689C18.0379 55.3626 17.4876 53.9067 16.4143 53.2313C15.895 52.9287 15.1278 52.7753 14.1203 52.7753H8.60238V63.5019C8.60238 65.2342 8.70313 66.3744 8.893 66.927C9.04412 67.3479 9.35799 67.7119 9.83848 68.0145C10.4779 68.418 11.1637 68.6197 11.8961 68.6197H12.9927V69.602H0V68.6197H1.07336C2.33272 68.6197 3.23945 68.2075 3.80907 67.3874C4.16557 66.8699 4.34381 65.5762 4.34381 63.5063V41.4346C4.34381 39.7024 4.24306 38.5622 4.05319 38.0096C3.6502 36.8782 2.65821 36.3168 1.07336 36.3168H0V35.3345H22.5367L22.8273 42.8949V42.8862Z" fill="#67152C"/>
<path d="M55.1172 63.252C55.1172 65.2868 54.4235 66.9883 53.0286 68.361C51.7111 69.6371 50.1301 70.2774 48.3089 70.2774C47.034 70.2774 45.6119 70.0186 44.0387 69.5012C43.5195 69.3301 43.1165 69.2424 42.8336 69.2424C42.4887 69.2424 42.2252 69.4836 42.0315 69.966H41.2526V61.7346H42.0315C42.388 63.7431 43.07 65.392 44.0658 66.6594C45.2012 68.1022 46.6194 68.8258 48.3205 68.8258C49.266 68.8258 50.0604 68.5144 50.7152 67.8961C51.4243 67.2383 51.777 66.3875 51.777 65.3438C51.777 63.9449 51.1454 62.7126 49.886 61.6338C49.3358 61.1601 48.1771 60.4278 46.4024 59.4147C44.6355 58.4149 43.4149 57.5422 42.7445 56.801C41.6944 55.6608 41.1674 54.2224 41.1674 52.4858C41.1674 50.5036 41.7758 48.881 42.9886 47.6356C44.1472 46.4033 45.6119 45.7893 47.3712 45.7893C48.181 45.7893 49.1459 45.9779 50.2929 46.3682C51.0485 46.6269 51.56 46.7497 51.8118 46.7497C52.2071 46.7497 52.552 46.4296 52.8348 45.7937H53.6137V53.6611H52.8348C52.3621 51.6 51.7847 50.0958 51.095 49.1573C50.196 47.8811 48.9211 47.2409 47.2898 47.2409C46.4296 47.2409 45.6662 47.4908 45.0036 47.9995C44.217 48.5697 43.8217 49.3196 43.8217 50.2449C43.8217 52.0297 44.9958 53.5734 47.344 54.8715L50.599 56.6651C53.6098 58.3315 55.121 60.5286 55.121 63.2564L55.1172 63.252Z" fill="#67152C"/>
<path d="M88.2673 69.602H78.3397V68.6723C79.8355 68.6723 80.7848 68.1987 81.1607 67.2558C81.3583 66.7603 81.6451 65.7736 81.4513 64.3571L80.4942 57.4194L87.1862 53.7225L85.1558 64.3571C84.7528 66.4752 85.5316 67.8391 86.2756 68.3171C86.636 68.5495 87.2986 68.6723 88.2673 68.6723V69.602Z" fill="#67152C"/>
<path d="M107.677 57.5904C107.677 59.7217 107.243 61.8004 106.383 63.8221C105.476 65.9885 104.255 67.6111 102.732 68.6723C101.198 69.7424 99.4853 70.2774 97.6021 70.2774C94.5215 70.2774 92.0764 68.8872 90.259 66.12C88.7284 63.7826 87.9651 61.1601 87.9651 58.2526C87.9651 56.1301 88.4146 54.069 89.3058 52.0473C90.2513 49.8897 91.4952 48.3109 93.018 47.3023C94.537 46.2936 96.1528 45.7937 97.8423 45.7937C100.938 45.7937 103.414 47.1225 105.29 49.78C106.883 52.0473 107.677 54.6566 107.677 57.5992V57.5904ZM103.562 59.5332C103.562 55.4328 102.775 52.2008 101.206 49.8195C100.132 48.2057 98.78 47.3944 97.1487 47.3944C95.1453 47.3944 93.7039 48.5916 92.8165 50.9816C92.3205 52.3192 92.0764 54.0295 92.0764 56.1169C92.0764 58.9894 92.5336 61.5943 93.4404 63.9361C94.6222 66.9927 96.3311 68.5188 98.5553 68.5188C101.888 68.5188 103.558 65.5236 103.558 59.5375L103.562 59.5332Z" fill="#67152C"/>
<path d="M129.892 69.602H119.782V68.6723H120.208C121.762 68.6723 122.685 68.0233 122.983 66.7296C123.045 66.4796 123.076 65.6859 123.076 64.3571V54.9022C123.076 50.8983 122.026 48.8986 119.918 48.8986C118.159 48.8986 116.403 49.9949 114.656 52.1788V64.3615C114.656 65.9227 114.741 66.8919 114.9 67.2602C115.295 68.1987 116.31 68.6767 117.949 68.6767V69.6064H107.84V68.6767H108.289C109.432 68.6767 110.196 68.2645 110.568 67.4444C110.819 66.8743 110.947 65.8481 110.947 64.3659V55.7968C110.947 52.0254 110.726 49.9291 110.277 49.4906C110.041 49.2757 109.727 49.1617 109.347 49.1617C108.929 49.1617 108.433 49.2845 107.851 49.5257L107.514 48.596L113.691 45.7981H114.652V50.701C117.047 47.4294 119.325 45.7981 121.491 45.7981C123.793 45.7981 125.393 47.1532 126.288 49.8633C126.618 50.8544 126.777 52.3981 126.777 54.5075V64.3703C126.777 66.5366 127.149 67.8566 127.889 68.3303C128.237 68.5627 128.912 68.6855 129.884 68.6855V69.6152L129.892 69.602Z" fill="#67152C"/>
<path fill-rule="evenodd" clip-rule="evenodd" d="M59.1936 55.2486C59.1936 54.661 59.2595 54.2531 59.2944 53.7488C59.554 53.9637 59.7477 54.775 59.7438 55.0206L59.2944 56.2924C59.1781 55.7179 59.1936 56.266 59.1936 55.253V55.2486Z" fill="#67152C"/>
<path d="M39.9933 66.2867C38.3154 68.8083 36.7151 70.0669 35.1884 70.0669C33.6035 70.0669 32.7936 68.7907 32.7626 66.2341C30.6508 68.0979 29.3333 69.1591 28.8063 69.4266C28.0042 69.8476 27.1517 70.0669 26.245 70.0669C24.7493 70.0669 23.5596 69.4793 22.6684 68.3171C21.8082 67.2032 21.3703 65.7999 21.3703 64.1071C21.3703 61.7171 22.6607 59.6735 25.2375 57.9544C26.741 56.9545 29.2481 55.7179 32.7626 54.2794V53.3629C32.7626 51.464 32.5495 50.0563 32.1155 49.1441C31.5227 47.9118 30.4764 47.2891 28.9729 47.2891C28.2018 47.2891 27.5082 47.5303 26.9076 48.0215C26.2062 48.5653 25.8691 49.2625 25.9001 50.1177L25.9466 51.5824C25.9931 53.205 25.3537 54.0163 24.0401 54.0163C22.7808 54.0163 22.1492 53.205 22.1492 51.5736C22.1492 49.6748 23.0172 48.1925 24.7648 47.1225C26.1985 46.2322 27.8221 45.7849 29.6433 45.7849C33.0571 45.7849 35.2 46.9163 36.0641 49.1836C36.3315 49.9072 36.4671 51.4026 36.4671 53.6523V61.5636C36.4671 64.6334 36.6337 66.3261 36.9631 66.6551C37.122 66.8173 37.3196 66.905 37.5443 66.905C37.7884 66.905 37.9938 66.8436 38.1759 66.7252C38.4743 66.5191 39.0749 65.8964 39.9894 64.8702V66.2867H39.9933ZM32.7665 64.5764V55.7749C30.5307 56.766 29.0776 57.4852 28.384 57.9237C26.1791 59.3051 25.0825 60.9628 25.0825 62.8924C25.0825 63.9887 25.3654 64.9447 25.935 65.7736C26.5511 66.6638 27.33 67.1111 28.2755 67.1111C29.4108 67.1111 30.9065 66.2648 32.7665 64.5764Z" fill="#67152C"/>
<path d="M77.433 69.602H67.4162V68.6723H67.8812C69.4428 68.6723 70.3573 68.0233 70.6402 66.7296C70.6867 66.5323 70.7099 65.7473 70.7099 64.3659V56.2222C70.7099 54.3584 70.6789 53.1612 70.6169 52.6262C70.4271 51.1 69.9698 50.0475 69.253 49.4774C68.7492 49.0871 68.1331 48.8986 67.4162 48.8986C65.8391 48.8986 64.1303 49.9949 62.2936 52.1964V64.3703C62.2936 65.5938 62.3168 66.3393 62.3633 66.5893C62.4796 67.3743 62.8283 67.9356 63.4095 68.2733C63.8203 68.5408 64.5526 68.6767 65.5911 68.6767V69.6064H55.4814V68.6767C56.3726 68.6767 57.0818 68.5145 57.6165 68.1943C58.2636 67.8128 58.593 66.5279 58.593 64.3615V43.43C58.593 39.7989 58.3721 37.7597 57.9226 37.3211C57.6862 37.1062 57.3724 36.9922 56.9926 36.9922C56.6788 36.9922 56.1673 37.1282 55.4737 37.4044L55.1598 36.523L61.2667 33.6768H62.2974V50.622C63.549 49.0696 64.5526 47.982 65.316 47.3593C66.5676 46.3156 67.8463 45.7893 69.1445 45.7893C71.6012 45.7893 73.2248 47.2804 73.992 50.2756C74.2749 51.3544 74.4183 53.3234 74.4183 56.1871V64.3571C74.4183 65.8087 74.5267 66.8085 74.7321 67.3611C75.0537 68.2338 75.9605 68.6723 77.4368 68.6723V69.602H77.433Z" fill="#67152C"/>
<path d="M191.569 43.8553C192.108 43.772 192.62 43.6931 193.108 43.6098C193.592 43.5264 194.088 43.487 194.592 43.487C197.037 43.487 198.951 44.2281 200.338 45.7147C201.722 47.2014 202.415 49.245 202.415 51.8499C202.415 53.8453 201.958 55.8801 201.04 57.9544C200.121 60.0287 198.943 61.9232 197.506 63.6335C196.068 65.3438 194.456 66.7471 192.678 67.8479C190.895 68.9486 189.124 69.4968 187.365 69.4968C183.444 69.4968 181.483 67.5409 181.483 63.6335C181.483 62.5328 181.781 61.5592 182.374 60.7041C182.967 59.8489 183.676 59.4235 184.505 59.4235C186.086 59.4235 186.881 60.4409 186.881 62.4758C186.881 63.3309 186.683 64.0238 186.288 64.55C185.893 65.0807 185.463 65.4754 184.994 65.7385C184.525 66.0016 184.095 66.1946 183.699 66.3174C183.304 66.4402 183.107 66.5191 183.107 66.563C183.107 66.8875 183.448 67.2251 184.133 67.5716C184.815 67.918 185.536 68.0891 186.292 68.0891C187.621 68.0891 189.024 67.6023 190.5 66.6243C191.976 65.6464 193.325 64.3966 194.545 62.8704C195.77 61.3443 196.777 59.634 197.568 57.7395C198.358 55.845 198.754 53.9856 198.754 52.1525C198.754 49.9554 198.168 48.2057 197.002 46.9032C195.832 45.6007 194.441 44.9473 192.821 44.9473C191.848 44.9473 190.86 45.1929 189.853 45.6797C188.919 46.127 188.055 46.6357 187.264 47.2058C187.047 47.8154 186.834 48.346 186.617 48.7933C186.113 50.0124 185.773 50.8281 185.59 51.236L184.513 53.5558C183.219 56.323 181.634 58.6736 179.766 60.6076C177.895 62.5415 175.45 64.322 172.427 65.949C167.285 68.7556 161.907 70.1634 156.296 70.1634C153.238 70.1634 150.48 69.8257 148.015 69.1547C145.551 68.4838 143.447 67.5365 141.703 66.3174C139.959 65.0982 138.618 63.6203 137.684 61.8925C136.751 60.1603 136.282 58.2395 136.282 56.1213C136.282 53.9242 136.882 51.7973 138.087 49.7405C139.293 47.6838 140.912 45.8551 142.943 44.2456C144.973 42.6362 147.314 41.3557 149.956 40.3996C152.599 39.4436 155.377 38.9656 158.291 38.9656C159.911 38.9656 161.492 39.1059 163.038 39.391V39.3296C163.65 37.2948 164.755 35.352 166.355 33.497C167.956 31.6464 169.889 30.015 172.156 28.6117C174.423 27.2084 176.922 26.0857 179.654 25.2525C182.386 24.4192 185.176 24.0026 188.016 24.0026C190.283 24.0026 193.519 24.7964 197.727 26.3839C199.885 27.1996 201.567 27.7872 202.772 28.1556C203.977 28.524 204.705 28.7038 204.957 28.7038C206 28.7038 206.883 28.0504 207.6 26.7479C207.709 26.6646 207.833 26.6251 207.976 26.6251C208.301 26.6251 208.46 26.8268 208.46 27.2347C208.46 27.8442 208.243 28.4363 207.813 29.0064C207.383 29.5765 206.833 30.0852 206.166 30.5325C205.5 30.9798 204.771 31.3482 203.981 31.6332C203.19 31.9183 202.454 32.0586 201.768 32.0586C200.544 32.0586 197.684 31.1245 193.189 29.252C188.764 27.3794 185.114 26.4453 182.239 26.4453C180.441 26.4453 178.615 26.8312 176.763 27.6074C174.911 28.3793 173.175 29.3879 171.555 30.629C169.936 31.87 168.517 33.2734 167.293 34.8433C166.068 36.4089 165.208 38.0096 164.704 39.6366L164.65 39.698C165.658 39.9436 166.646 40.2462 167.618 40.6145C170.567 41.6714 173.156 43.0572 175.388 44.7675L175.496 45.1359C175.496 45.4604 175.279 45.6227 174.849 45.6227C174.814 45.6227 174.651 45.5832 174.365 45.4999C171.668 43.465 168.359 41.9389 164.437 40.9215C164.294 41.6933 164.22 42.2459 164.22 42.5704C164.22 43.7501 164.453 44.9298 164.921 46.1138V46.2366C164.921 46.4822 164.797 46.605 164.546 46.605C164.259 46.605 164.007 46.4208 163.79 46.0568C163.573 45.6884 163.395 45.2631 163.251 44.7763C163.108 44.2895 162.999 43.7896 162.926 43.2809C162.852 42.7721 162.817 42.3775 162.817 42.0924V41.5442C162.817 41.3425 162.837 41.1364 162.872 40.9347V40.6891C162.224 40.6058 161.701 40.5487 161.306 40.5049C160.802 40.4654 160.299 40.4435 159.795 40.4435C157.206 40.4435 154.668 40.8996 152.188 41.8161C149.708 42.7327 147.496 43.9518 145.551 45.4779C143.609 47.0041 142.052 48.7451 140.885 50.6966C139.715 52.6525 139.13 54.6873 139.13 56.801C139.13 58.7131 139.533 60.4146 140.343 61.9013C141.153 63.3879 142.311 64.6509 143.822 65.6859C145.334 66.7252 147.166 67.519 149.325 68.0671C151.483 68.6153 153.928 68.8916 156.664 68.8916C161.701 68.8521 166.185 67.5891 170.125 65.107C174.062 62.6249 177.383 58.7964 180.08 53.626L181.266 51.3675C181.878 50.0651 182.533 48.6793 183.234 47.2146C183.936 45.7498 184.629 44.3553 185.311 43.0309C185.993 41.7065 186.652 40.4961 187.28 39.3998C187.908 38.299 188.477 37.4658 188.981 36.8957C189.45 36.3256 190.058 35.716 190.814 35.0626C191.569 34.4092 192.341 33.8128 193.135 33.2602C193.925 32.712 194.673 32.2647 195.375 31.9183C196.076 31.5718 196.626 31.4008 197.021 31.4008C197.347 31.4008 197.506 31.5236 197.506 31.7692C197.506 32.1375 197.273 32.4007 196.804 32.5629C196.122 32.8874 195.464 33.3041 194.836 33.8128C194.208 34.3215 193.569 35.0012 192.922 35.8564C192.275 36.7115 191.608 37.7816 190.926 39.0621C190.244 40.3426 189.504 41.9214 188.714 43.7939C188.535 44.2413 188.353 44.671 188.175 45.0745C188.605 44.8728 189.039 44.6666 189.469 44.4649C190.298 44.0965 191 43.8948 191.573 43.8553H191.569ZM219.353 52.1613C219.175 52.6086 217.644 57.2922 214.769 66.2033C215.776 65.3877 216.458 64.6992 216.819 64.1291C217.249 64.1291 217.555 64.3922 217.737 64.9228C217.125 65.7385 215.92 66.8173 214.122 68.1592L213.746 69.3784C212.668 72.6367 211.029 75.7065 208.836 78.5965C206.317 81.8548 203.981 83.4818 201.823 83.4818C200.311 83.4818 199.556 82.6267 199.556 80.9164C199.556 79.9384 200.059 78.7281 201.067 77.2853C202.074 75.8381 203.334 74.5268 204.845 73.3472C205.852 72.5753 207.724 71.229 210.456 69.317L212.13 64.6158C211.374 65.7166 210.386 66.8129 209.162 67.9137C207.65 69.2994 206.48 69.9879 205.655 69.9879C204.934 69.9879 204.333 69.7029 203.849 69.1328C203.365 68.5627 203.121 67.8698 203.121 67.0585C203.121 65.8788 203.985 63.5589 205.709 60.0989C207.581 56.3537 208.515 54.1961 208.515 53.626C208.515 52.9726 208.282 52.6481 207.813 52.6481C207.418 52.6481 206.697 52.9726 205.655 53.626C205.26 53.5032 205.008 53.2182 204.899 52.7709C205.69 51.6307 207.023 51.0606 208.89 51.0606C210.58 51.0606 211.425 51.8938 211.425 53.5646C211.425 54.4592 210.444 56.9633 208.484 61.0768C206.523 65.1859 205.542 67.4663 205.542 67.9137C205.542 68.361 205.721 68.5846 206.081 68.5846C207.158 68.5846 208.724 67.2602 210.774 64.6158C212.537 62.2565 213.707 60.3225 214.28 58.8139L216.493 52.7095C216.819 51.9376 217.14 51.5079 217.466 51.4289C217.969 51.3061 218.33 51.2447 218.543 51.2447C219.155 51.2447 219.461 51.4289 219.461 51.7929C219.461 51.8762 219.426 51.9946 219.353 52.1613ZM209.805 71.2115C208.042 72.4306 206.91 73.2682 206.407 73.7155C205.256 74.8163 204.248 76.0135 203.384 77.316C202.377 78.8201 201.873 80.0217 201.873 80.9164C201.873 81.6487 202.16 82.0171 202.737 82.0171C203.671 82.0171 204.787 81.0523 206.081 79.1184C207.375 77.1844 208.472 74.9785 209.371 72.492L209.801 71.2115H209.805ZM240.343 36.9571C240.343 39.3998 238.797 42.5529 235.705 46.4208C233.008 49.8414 230.489 52.2402 228.153 53.626C227.471 55.5819 226.731 57.6343 225.94 59.7919C227.451 57.7176 228.622 56.2485 229.447 55.3933C232.109 52.6261 234.267 51.2404 235.922 51.2404C237.542 51.2404 238.352 52.0736 238.352 53.7444C238.352 55.5337 237.236 57.3887 235.008 59.3007C232.776 61.2128 230.474 62.4144 228.102 62.9011C230.152 66.199 231.772 67.9093 232.958 68.0321C234.287 68.1943 235.387 67.747 236.247 66.6901C236.321 66.5673 236.41 66.5059 236.519 66.5059C236.949 66.5059 237.166 66.7296 237.166 67.1769C237.166 67.2997 237.112 67.4225 237.003 67.5453C235.314 69.1328 233.516 69.9266 231.609 69.9266C230.28 69.9266 228.947 69.1723 227.618 67.6681C227.366 67.383 226.378 65.9972 224.65 63.5151C223.677 66.2428 223.139 67.8084 223.03 68.2162C222.887 68.7469 221.879 69.317 220.008 69.9266C219.791 70.0099 219.647 69.966 219.577 69.8038C219.469 69.602 219.488 69.2951 219.632 68.8872L228.048 45.9296C229.164 42.9563 230.675 40.29 232.582 37.9307C234.667 35.4091 236.558 34.1461 238.247 34.1461C239.65 34.1461 240.351 35.0845 240.351 36.9527L240.343 36.9571ZM238.239 36.6501C238.239 35.9967 238.022 35.6722 237.592 35.6722C236.693 35.6722 235.488 37.058 233.977 39.8252C232.826 41.8205 231.171 45.6665 229.013 51.3675C230.741 50.2273 232.663 48.0522 234.787 44.8333C237.088 41.3337 238.239 38.606 238.239 36.6501ZM235.163 53.1962C235.163 52.8279 234.965 52.6481 234.57 52.6481C233.671 52.6481 232.016 54.1128 229.606 57.0422C227.304 59.77 226.153 61.2961 226.153 61.6206C226.153 61.8662 226.459 61.989 227.072 61.989C228.474 61.989 230.175 60.9102 232.171 58.7525C234.167 56.5949 235.166 54.7443 235.166 53.1962H235.163ZM252.805 53.7444C252.805 56.3888 251.457 58.7701 248.76 60.8882C246.601 62.5152 244.625 63.4318 242.823 63.6379C242.393 64.9404 242.176 65.9358 242.176 66.6287C242.176 68.054 242.843 68.7644 244.172 68.7644C245.249 68.7644 246.473 68.2162 247.841 67.1155C248.919 66.2209 249.748 65.3263 250.321 64.4273C250.79 64.1422 251.077 64.3264 251.185 64.9754C250.573 65.9534 249.728 66.9094 248.651 67.8435C246.962 69.2293 245.307 69.9178 243.687 69.9178C240.917 69.9178 239.533 68.3697 239.533 65.278C239.533 62.1425 240.739 58.9806 243.149 55.7836C245.559 52.5867 247.826 50.9904 249.945 50.9904C251.852 50.9904 252.805 51.9069 252.805 53.74V53.7444ZM250.593 53.376C250.593 52.6042 250.341 52.2139 249.837 52.2139C249.081 52.2139 248.004 53.3541 246.601 55.6345C245.307 57.6694 244.191 59.8884 243.257 62.2916C244.877 62.2082 246.504 61.1514 248.14 59.1165C249.775 57.0817 250.596 55.1697 250.596 53.376H250.593ZM278 51.7885C278 51.6657 277.748 52.1744 277.244 53.3146C276.489 55.025 275.481 57.4852 274.222 60.7041C272.641 64.7342 271.847 67.0541 271.847 67.6637C271.847 68.2733 272.172 68.5802 272.819 68.5802C274.113 68.5802 275.427 67.2778 276.756 64.6728C277.403 64.4273 277.744 64.5501 277.783 65.0412C277.279 66.0586 276.597 67.0366 275.733 67.9707C274.509 69.3126 273.342 69.9836 272.226 69.9836C270.176 69.9836 269.15 69.067 269.15 67.2339C269.15 65.9315 269.708 63.8133 270.824 60.8839C271.579 58.849 272.261 57.2396 272.873 56.0599L272.711 55.7529C271.812 56.323 270.068 58.5026 267.476 62.2872C266.147 64.2825 264.903 66.4577 263.752 68.8214C263.535 69.3521 262.675 69.716 261.163 69.9222C260.66 70.0055 260.408 69.9002 260.408 69.6152C260.408 69.4135 261.237 67.3567 262.888 63.4493C264.686 59.2569 265.693 56.8361 265.91 56.1827L265.693 55.8757C264.829 56.4064 263.085 58.5815 260.458 62.41C258.769 64.8526 257.401 66.9094 256.358 68.5758C256.25 68.8214 255.928 69.0933 255.386 69.4003C254.847 69.7073 254.359 69.8564 253.929 69.8564C253.499 69.8564 253.282 69.6108 253.282 69.124C253.282 68.839 254.27 66.4358 256.25 61.9188C258.013 57.8492 258.893 55.3056 258.893 54.2882C258.893 53.5164 258.641 53.1261 258.137 53.1261C258.063 53.1261 257.436 53.3497 256.25 53.797C256.107 53.797 255.99 53.6655 255.901 53.4024C255.812 53.1392 255.8 52.9463 255.874 52.8235C257.168 51.7227 258.59 51.1746 260.137 51.1746C261.574 51.1746 262.295 51.885 262.295 53.3103C262.295 54.6127 261.361 57.3799 259.489 61.6162L259.706 61.6776C260.749 60.0506 262.186 58.1781 264.023 56.0599C265.856 53.9418 267.17 52.6086 267.96 52.0604C268.751 51.5123 269.634 51.236 270.603 51.236C271.106 51.236 271.358 51.3982 271.358 51.7228C271.358 51.6833 271.106 52.2315 270.603 53.3717L267.526 60.3927C270.618 56.038 273.102 53.2269 274.97 51.9683C275.76 51.3982 276.551 51.1132 277.345 51.1132C277.775 51.1132 277.992 51.3368 277.992 51.7841L278 51.7885Z" fill="#67152C"/>
</svg>
